<svg id="Layer_1" data-name="Layer 1" xmlns="http://www.w3.org/2000/svg" viewBox="0 0 197.98 32.3"><title>athletica</title><path d="M3.3,20.35c-.64-.18-.87-.72-.91-1.42V7.77L0,8.53,0,19.76c.35,1.29.92,1.7,1.57,1.74A1.65,1.65,0,0,0,3.3,20.35"/><path d="M7.36,11.59H5.11q0,3.27,0,6.56c.09,1.94,1.1,3,3.24,3a4.09,4.09,0,0,0,2.78-.88c0,.23,0,.47,0,.71h2.25l0-9.39H11.12v6.48c-1,1.79-3.54,1.43-3.73,0Z"/><path d="M19.14,20.35c-.64-.18-.87-.72-.91-1.42V7.77l-2.36.76,0,11.23c.34,1.29.92,1.7,1.57,1.74a1.66,1.66,0,0,0,1.73-1.15"/><path d="M23.09,11.59H20.85c0,2.18,0,4.37,0,6.56.09,1.94,1.1,3,3.24,3a4.09,4.09,0,0,0,2.78-.88c0,.23,0,.47,0,.71H29.1l0-9.39H26.86v6.48c-1,1.79-3.54,1.43-3.74,0Z"/><path d="M34.93,20.35c-.65-.18-.87-.72-.92-1.42V7.77l-2.36.76,0,11.23c.35,1.29.92,1.7,1.58,1.74a1.67,1.67,0,0,0,1.73-1.15"/><path d="M38.42,17h6.66a6,6,0,0,0,.18-1.33,4.15,4.15,0,0,0-4.53-4.28c-3.42,0-4.68,2.61-4.72,4.92,0,3,1.49,4.73,4.77,4.81a4.9,4.9,0,0,0,3.45-1l-1-1.69a3.75,3.75,0,0,1-2.28.77c-1.6,0-2.46-.8-2.56-2.23m0-1.69a2.27,2.27,0,0,1,4.51,0Z"/><path d="M46.83,11.59l0,9.41h2.46l0-6.74a1.73,1.73,0,0,1,3,0V21h2.29c0-2.24,0-4.47,0-6.7a1.68,1.68,0,0,1,3.18.54l0,6.19H60V14c-1-3.12-4-3.07-6-1.51a3.69,3.69,0,0,0-5-.1l-.48-.75Z"/><path d="M72.28,11.59l0,9.41H74.7l0-6.74c.55-1.27,3.23-1.08,3.55,0V21h2.29c0-2.24,0-4.44,0-6.68-.1-2.41-3.53-4.07-6.09-2l-.48-.75Z"/><path d="M66.1,19.26c-2.72,0-3-5.94,0-5.93s2.7,5.93,0,5.93m0-7.86c-6,0-6.31,9.79,0,9.79s6-9.84,0-9.79"/><path d="M156.47,20.35c-.64-.18-.87-.72-.91-1.42V7.77l-2.36.76,0,11.23c.35,1.29.92,1.7,1.57,1.74a1.65,1.65,0,0,0,1.73-1.15"/><path d="M160,17h6.66a6,6,0,0,0,.18-1.33c0-2.32-1.49-4.27-4.54-4.28-3.41,0-4.67,2.61-4.71,4.92,0,3,1.49,4.73,4.76,4.81a4.91,4.91,0,0,0,3.46-1l-1-1.69a3.75,3.75,0,0,1-2.28.77c-1.61,0-2.46-.8-2.56-2.23m.05-1.69a2.27,2.27,0,0,1,4.51,0Z"/><path d="M129.85,16.57c-1.55,0-2.42.51-2.42,1.57s.65,1.25,1.49,1.25c1.38,0,2-.94,1.81-2.74-.3,0-.59-.08-.88-.08m-3.35-2.81c-.16-.55-.17-1.14-.33-1.68a5.89,5.89,0,0,1,2.67-.7c2.73.07,4,1.22,4.12,3.44v3.59c0,1.08.3,1.73.89,1.94a1.57,1.57,0,0,1-2.85-.19,2.82,2.82,0,0,1-2.56.95c-2,0-3.28-.63-3.3-2.81s1-3.77,5.53-3.44c-.08-1.36-1.35-2-4.17-1.1"/><path d="M137.88,8.86l-2.29.89,0,1.83h-1.05v1.86h1l0,5.4c.13,1.29.62,2.25,3,2.33a8.08,8.08,0,0,0,2.07-.2V18.89a3,3,0,0,1-1.41.39A1.22,1.22,0,0,1,137.94,18l0-4.51h2.43l0-1.88-2.52,0Z"/><path d="M142.36,8.1l0,12.9h2.46l0-6.74c.55-1.27,3.23-1.09,3.56,0V21h2.29c0-2.24,0-4.44,0-6.68-.1-2.41-3.44-4-5.86-2.12l0-4.51Z"/><path d="M171,8.86l-2.3.89,0,1.83h-1v1.86h1l0,5.4c.13,1.29.62,2.25,3,2.33a8.08,8.08,0,0,0,2.07-.2V18.89a3.07,3.07,0,0,1-1.41.39A1.21,1.21,0,0,1,171.09,18l0-4.51h2.44l0-1.88-2.52,0Z"/><path d="M194,16.57c-1.55,0-2.42.51-2.42,1.57s.65,1.25,1.49,1.25c1.38,0,2-.94,1.81-2.74-.3,0-.59-.08-.88-.08m-3.35-2.81c-.16-.55-.17-1.14-.33-1.68a5.89,5.89,0,0,1,2.67-.7c2.73.07,4.05,1.22,4.12,3.44v3.59c0,1.08.29,1.73.89,1.94a1.57,1.57,0,0,1-2.85-.19,2.82,2.82,0,0,1-2.56.95c-2,0-3.28-.63-3.3-2.81s1-3.77,5.53-3.44c-.08-1.36-1.35-2-4.17-1.1"/><path d="M182.57,17c-.22-3.51,2.52-4.56,4.73-3l.88-1.66a5.44,5.44,0,0,0-3.31-1c-3.41,0-4.67,2.61-4.71,4.92,0,3,1.49,4.73,4.76,4.81a4.94,4.94,0,0,0,3.46-1l-1-1.69a3.75,3.75,0,0,1-2.28.77c-1.61,0-2.46-.8-2.56-2.23"/><polygon points="174.88 11.59 178.32 11.6 178.35 21 176.1 21 176.08 13.49 174.88 13.49 174.88 11.59"/><path d="M177.24,8a1.31,1.31,0,1,1-1.31,1.31A1.31,1.31,0,0,1,177.24,8"/><path d="M114.51,25.22l-.24.26-.25.23-.26.22-.26.21-.26.18-.27.17-.27.14-.28.13-.27.12-.29.09-.28.08-.29.06-.29,0-.29,0h-.6l-.3,0-.31-.05-.31-.07-.31-.09-.31-.11-.32-.13-.31-.15-.32-.18-.33-.19-.32-.22-.32-.23-.25-.21-.22-.2-.2-.21-.17-.21-.16-.22-.13-.21-.11-.22-.1-.22-.08-.23-.06-.23,0-.23,0-.24v-.73l0-.26,0-.25,0-.26,0-.26.06-.27.07-.27.08-.27.08-.27.09-.27.09-.27.1-.27.1-.27.11-.27.11-.27.11-.27.1-.27.11-.27.22-.55.22-.55.21-.54.2-.55.2-.55.19-.54.18-.54.17-.53.15-.53.14-.52.12-.51.1-.51.08-.49.06-.49,0-.47V9.47l0-.45,0-.43-.09-.43-.13-.41-.17-.38L108,7l-.25-.34-.3-.32-.34-.28-.38-.25-.43-.21-.47-.19-.51-.14-.56-.11-.6-.07-.67,0-.66,0-.61.07-.56.11-.51.14-.47.19-.43.21-.38.25-.34.28-.3.32L99,7l-.21.37-.17.38-.12.41-.09.43L98.34,9l0,.45v.47l0,.47.06.49.07.49.11.51.12.51.13.52.16.53.16.53.18.54.19.54.2.55.21.55.21.54.21.55.22.55.11.27.11.27.11.27.1.27.11.27.1.27.1.27.09.27.09.28.09.26.07.27.07.27.06.27,0,.26,0,.26,0,.25,0,.26v.49l0,.24,0,.24,0,.23-.07.23-.08.23-.09.22-.12.22-.13.21-.15.22-.18.21-.19.21-.23.2-.25.21-.32.23-.32.22-.32.19-.32.18-.32.15-.32.13-.31.11-.31.09-.31.07-.31.05-.3,0h-.6l-.29,0-.29,0-.29-.06L95.14,27l-.28-.09-.28-.12-.28-.13L94,26.49l-.27-.17-.26-.18-.26-.21L93,25.71l-.25-.23-.25-.26L92.33,25l.18.06.19,0,.19.05.19,0,.18,0,.18,0,.19,0h.88l.18,0,.17,0,.16,0,.17,0,.16-.06.17-.06.16-.07.15-.08.15-.08.15-.1.15-.1.14-.11.22-.19.2-.19L97,24l.16-.21.14-.21.13-.22.11-.22.09-.23.08-.24.06-.24,0-.25,0-.25v-.51l0-.26,0-.26-.05-.27-.07-.27L97.6,20l-.09-.28-.1-.29-.11-.29-.12-.3-.13-.3-.14-.31-.15-.32-.16-.32-.17-.33L96.25,17l-.18-.35-.2-.35-.2-.35-.41-.76-.37-.72-.32-.71L94.3,13l-.23-.65-.19-.63-.14-.61-.1-.57L93.58,10V9.5l0-.5.06-.47.11-.45.14-.43.18-.4.22-.38.26-.36.3-.33.34-.32.38-.3L96,5.28,96.48,5,97,4.78l.56-.21.59-.19.64-.17.69-.15.72-.12.77-.09.81-.07.85,0,.88,0,.89,0,.85,0,.81.07.76.09.73.12.68.15.64.17.6.19.55.21.51.24.47.26.42.28.38.3.34.32.3.33.26.36.22.38.18.4.15.43.1.45.07.47,0,.5V10l-.06.56-.1.57-.14.61-.18.63-.23.65-.28.68-.32.71-.36.72-.42.76-.2.35-.19.35-.19.35-.18.33-.16.33-.16.32-.16.32-.14.31-.13.3-.12.3-.11.29-.1.29-.08.28-.08.28-.06.27,0,.27,0,.26,0,.26v.51l0,.25,0,.25,0,.24.08.24.09.23.11.22.13.22.14.21L110,24l.18.19.19.19.22.19.14.11.15.1.15.1.15.08.16.08.16.07.16.06.16.06.17,0,.17,0,.17,0,.17,0h.89l.18,0,.18,0,.19,0,.18,0,.19-.05.19,0,.18-.06ZM103.42,0a16.15,16.15,0,1,0,16.15,16.15A16.16,16.16,0,0,0,103.42,0"/></svg>