<svg xmlns="http://www.w3.org/2000/svg" viewBox="0 0 98.53 45.89"><title>Charlie Rose</title><g id="Layer_2" data-name="Layer 2"><g id="Design"><path d="M91.45,9.15v0h2.14c.29,0,.49-.18.3-.45A3,3,0,0,0,92,7.21a2.7,2.7,0,0,0-2.93,1.26c-.25.52-.2.65.35.67s1.34,0,2,0M58.22,14.47c.31,0,.59,0,.87-.08a2.44,2.44,0,0,0,2.12-2c0-.3.11-.72-.37-.73a7.56,7.56,0,0,0-3.27.35,1.43,1.43,0,0,0-.93,1.5c.09.51.48.78,1.26.86l.32.05M84.51,27.56c1.56,0,3.11,0,4.66,0,1.12,0,1.2-.1.75-1.16a7.44,7.44,0,0,0-1.12-1.8,5.44,5.44,0,0,0-5-1.62,5.29,5.29,0,0,0-4.75,3.53c-.36.93-.28,1,.68,1,1.59,0,3.18,0,4.77,0M48,31.47h.08c-.11,1.14-.22,2.28-.35,3.42-.06.48-.18,1-.27,1.44l1.66,0h.12l4.8-.68a.87.87,0,0,1,1.13.72,3.05,3.05,0,0,0,2,2.16,7.84,7.84,0,0,0,5.68-.06,1.66,1.66,0,0,0,.42-3,4.82,4.82,0,0,0-1.8-.81c-1.83-.45-3.69-.78-5.52-1.22-2.92-.72-5.84-1.46-7.66-4.2a1.08,1.08,0,0,0-.24-.18,1.12,1.12,0,0,0-.06.23c0,.72,0,1.44,0,2.15m-20.56-.32A7.54,7.54,0,0,0,28.6,36.2a6,6,0,0,0,2,2.09c3,1.61,7,.77,8.32-3.09a10.94,10.94,0,0,0,.57-5.46,12.75,12.75,0,0,0-.81-3.3,4.81,4.81,0,0,0-3.41-3,8.49,8.49,0,0,0-2.92-.19,5,5,0,0,0-3.52,2.2,8.7,8.7,0,0,0-1.39,5.71M79.84,17a.76.76,0,0,0,1-.74,11.61,11.61,0,0,0,.08-1.67c0-3,0-6.06-.09-9.08,0-.52.1-.73.63-.71.8,0,1.6,0,2.39,0s.76,0,.76.83q0,4.66,0,9.33c0,.28,0,.56,0,.83s.16.49.5.53c.82.12,1.64.27,2.47.39.1,0,.21-.07.31-.1a1,1,0,0,0-.14-.31,4.27,4.27,0,0,0-.44-.41,5,5,0,0,1-1.82-3.24c-.29-2.19-.35-4.36,1.14-6.23a5.58,5.58,0,0,1,3.85-2.09,8.11,8.11,0,0,1,2,0,5.42,5.42,0,0,1,3.8,2.32,7.13,7.13,0,0,1,1.21,4.37c0,.85,0,.87-.86.87-1.87,0-3.75,0-5.62,0H89.73c-.83,0-1.16.55-.69,1.21a2.51,2.51,0,0,0,2,1.27c1.17,0,2.21-.08,2.87-1.23a.78.78,0,0,1,.68-.23,16.19,16.19,0,0,1,2.29.53c.53.18.41.59.16,1a5.63,5.63,0,0,1-3.84,2.73c-.67.11-1.34.16-2,.24a.79.79,0,0,0-.28.13,1.73,1.73,0,0,0,.24.23,28.32,28.32,0,0,1,2.59,1.86,13.44,13.44,0,0,1,4,7,27.85,27.85,0,0,1,.74,6.23c0,.48-.11.63-.57.63-1,0-2.08,0-3.11,0q-7.41,0-14.82,0a2.18,2.18,0,0,0-1,.22.8.8,0,0,0-.31.67,7,7,0,0,0,2.66,4.08,3.41,3.41,0,0,0,1.32.47,7.46,7.46,0,0,0,5.08-.37,4.38,4.38,0,0,0,2.44-2.45c.24-.72.42-.77,1.16-.56l6,1.75c.72.21.72.23.41.94a11.71,11.71,0,0,1-7.13,6.6,18.37,18.37,0,0,1-5.44,1,15.29,15.29,0,0,1-7.68-1.63,12.17,12.17,0,0,1-4.75-4.53c-.09-.14-.13-.3-.21-.43-.26-.39-.42-.38-.63,0a1.65,1.65,0,0,0-.18.31c-.73,2.58-2.68,4-5,4.83a19.12,19.12,0,0,1-7.68,1.22,19,19,0,0,1-7.26-1.47,9.36,9.36,0,0,1-4.93-5.06,2.85,2.85,0,0,0-.38-.55l-.34.48c-.33.49-.65,1-1,1.46a13.08,13.08,0,0,1-8.79,5.08,17.73,17.73,0,0,1-4.26.14,15.59,15.59,0,0,1-5.69-1.47,11.73,11.73,0,0,1-5.38-5,17,17,0,0,1-1.56-12.31c.3-1.36.33-1.38-1-1.82a8.22,8.22,0,0,0-5.25-.22,6.11,6.11,0,0,0-4,3.6,9.77,9.77,0,0,0-.7,3.7c0,2.47-.05,4.94,0,7.41,0,1.54.26,3.08.41,4.61,0,.28,0,.48-.35.48l-.83,0H1.24C-.1,44.71,0,44.85,0,43.51V23.43c0-1.68,0-3.35,0-5,0-.87,0-.89.82-.89,2.39,0,4.79,0,7.18,0,.56,0,.75.1.63.73a8.7,8.7,0,0,0,0,1.91.51.51,0,0,0,.2.38.52.52,0,0,0,.39-.17A13.41,13.41,0,0,1,12,18.15a8.78,8.78,0,0,1,3.94-1.1,30.72,30.72,0,0,1,3.46,0,12.32,12.32,0,0,1,2,.27c.13,0,.29.26.3.41a3,3,0,0,1-.1.93c-.41,1.55-.84,3.11-1.26,4.66a.82.82,0,0,0,.07.33c.09,0,.23-.07.28-.14A28.29,28.29,0,0,1,22.4,21a13.8,13.8,0,0,1,4.88-3.45c.1-.05.24,0,.34-.08.44-.19.88-.4,1.32-.6-.42-.29-.82-.6-1.26-.87-2.06-1.26-2.88-3.25-3.28-5.49A9,9,0,0,1,24.17,9a9.58,9.58,0,0,1,2.42-6.85,6.22,6.22,0,0,1,4-2,11.83,11.83,0,0,1,4.15.19A5.9,5.9,0,0,1,38.7,3.61c.17.39.33.79.48,1.19s0,.6-.41.68c-.86.15-1.7.35-2.56.47-.5.08-.92.11-1.16-.62a2.83,2.83,0,0,0-2.58-2A3.62,3.62,0,0,0,29.24,5a4.43,4.43,0,0,0-.8,2.43A9.38,9.38,0,0,0,28.66,11a3.74,3.74,0,0,0,4.8,2.65,3.17,3.17,0,0,0,1.9-2.14c.12-.38.24-.54.63-.49.94.11,1.89.17,2.82.32.57.09.69.37.52,1a7.58,7.58,0,0,1-2.44,3.72c-.47.41-.42.57.16.71a15.76,15.76,0,0,1,5,1.89,13,13,0,0,1,5,6,4,4,0,0,0,.24.38,3.63,3.63,0,0,0,.1-.45c.36-3.58,2.39-5.82,5.66-7.06.55-.21,1.13-.34,1.69-.52,0,0,.1-.25.06-.28-.23-.22-.49-.4-.73-.6a3.68,3.68,0,0,1,.84-6,9.86,9.86,0,0,1,4.23-1c.44,0,.88,0,1.31,0,.26,0,.73-.1.74-.19A1.71,1.71,0,0,0,61,7.84a2.08,2.08,0,0,0-1.2-.64,2.22,2.22,0,0,0-2.55,1.07c-.15.3-.37.33-.69.26-.85-.16-1.71-.27-2.57-.41-.58-.1-.65-.26-.4-.79a4.94,4.94,0,0,1,4-2.76,10.86,10.86,0,0,1,4,0,3.49,3.49,0,0,1,3,2.35,4.12,4.12,0,0,1,.17,1.16c0,2,0,3.91,0,5.86,0,.75.12,1.5.17,2.25,0,.23,0,.62,0,.67-.87.39-.09.31.1.41.92.46,1.87.86,2.74,1.4A8.66,8.66,0,0,1,71.34,24c.1.33,0,.46-.24.53a5.91,5.91,0,0,1-.94.13c-1.18.15-2.35.3-3.53.43-1,.11-2,.22-3.07.27-.21,0-.59-.19-.62-.34-.3-1.71-1.65-2-3-2.24a6.33,6.33,0,0,0-3.26.49,1.58,1.58,0,0,0-1.09,1.3c-.1.71,0,1.18.72,1.45a26.81,26.81,0,0,0,3.24,1.09c2.62.69,5.34,1,7.83,2.16A29.62,29.62,0,0,1,70,30.79l.4.22a1.7,1.7,0,0,0,.11-.43,16.51,16.51,0,0,1,1.2-5.89,11.79,11.79,0,0,1,3.42-4.91,12,12,0,0,1,4.6-2.6s.08-.12.11-.19Z"/><path d="M79.88,17c-1.07,0-2.15,0-3.22,0-.82,0-.84,0-.84-.88,0-3.15,0-6.29,0-9.44,0-.32,0-.64,0-1a.91.91,0,0,0-.11-.3,1.46,1.46,0,0,0-.17.29c-.24.75-.49,1.49-.7,2.25-.09.36-.17.36-.55.29a7.73,7.73,0,0,0-2.35-.08A2.1,2.1,0,0,0,70,9.86a9.31,9.31,0,0,0-.24,1.88c0,1.55,0,3.11.11,4.66,0,.42-.08.6-.5.57h-.12l-3.18-.14c0-1-.08-2-.08-3,0-2.71,0-5.42,0-8.12,0-.92,0-.91.93-.94l1.9-.06c.82,0,.85,0,1,.79.08.47.22.42.51.19s.35-.2.5-.33a3.48,3.48,0,0,1,2.65-.8c.35,0,.72,0,1.07,0s.78.07,1.16.1c0-.47.1-.94.11-1.41,0-.79,0-1.59,0-2.39,0-.47.2-.62.64-.61.88,0,1.76,0,2.63,0,.57,0,.75.17.74.76,0,3.14-.07,6.29-.07,9.43,0,2.19.06,4.38.09,6.56Z"/><path d="M40.18,8.7V1.17c0-.85,0-.86.84-.87s1.68,0,2.51,0c.65,0,.6.06.57.7C44,2.54,44,4.09,44,5.64c0,.28.16.35.36.16a4.87,4.87,0,0,1,3.21-1.3c2.77-.19,4.51,1,4.74,3.89.21,2.61,0,5.25.06,7.88,0,.49-.14.73-.67.71-.92,0-1.84,0-2.75,0-.5,0-.66-.21-.57-.65.44-2.13.11-4.29.21-6.43a2,2,0,0,0,0-.35,1.67,1.67,0,0,0-2.34-1.66A3,3,0,0,0,44,11c0,1.75,0,3.51,0,5.26,0,.55-.15.8-.74.76-.75,0-1.51,0-2.27,0s-.77,0-.77-.75V8.7"/><path d="M82.84,3.3c-2,0-2,0-2-2,0-1,0-1,1.07-1,.71,0,1.43,0,2.14,0,.39,0,.59.13.58.55,0,.59,0,1.19,0,1.78s-.19.72-.7.69c-.35,0-.71,0-1.07,0"/></g></g></svg>