<svg id="Layer_1" data-name="Layer 1" xmlns="http://www.w3.org/2000/svg" viewBox="0 0 74.89 58.88"><title>do</title><g id="kFKW3x.tif"><path d="M4.61,58.88H4.34a2.45,2.45,0,0,1,0-.27c0-.78-.05-1.57-.07-2.36C4.18,53.49,4.1,50.72,4,48s-.16-5.53-.21-8.3c0-1.33-.13-2.65-.25-4-.11-1.17-.21-2.34-.32-3.51-.08-.83-.15-1.66-.23-2.49-.1-1.13-.21-2.27-.31-3.4-.08-.85-.15-1.71-.23-2.56-.1-1.12-.21-2.24-.31-3.35-.07-.7-.12-1.41-.2-2.11-.12-.88-.26-1.77-.39-2.65C1.34,14,1.1,12.33.85,10.68S.36,7.34.1,5.67a1.18,1.18,0,0,0-.1-.3V5.21L3.11,5l4.34-.25c1-.07,2.09-.12,3.14-.18L15,4.34l3.09-.18L22.5,3.9l3-.17,3.85-.26,2.73-.18L36.58,3l3.71-.24,4.79-.31c.57,0,1.14-.07,1.7-.13l3.39-.41,3.29-.4L57.25,1l3.31-.4L64.44.16l1-.16h.22c0,.21,0,.42,0,.62.09,1.36.17,2.71.26,4.06l.18,2.93c.08,1.38.17,2.76.26,4.14.05,1,.11,1.91.17,2.87l.3,4.76.24,4c.12,1.87.25,3.75.35,5.63.07,1.26.2,2.52.36,3.78l.57,4.6c.21,1.67.41,3.35.62,5,.26,2.12.53,4.23.79,6.35.22,1.75.43,3.5.65,5.25,0,.27.06.55.09.85l-.66,0-10,.08q-1.68,0-3.36.12c-1.3.07-2.6.17-3.9.26L50,55.48l-3.79.26-2.73.18-3.79.25-2.74.18-3.68.25-3.19.24-3.84.31-3,.23-3.84.31-3,.24-3.79.3-3.05.23-4,.32Zm4-24.69c.13,0,.22,0,.31,0l1.46-.13,4-.35,3.4-.29c1.52-.14,3-.27,4.56-.43A26.65,26.65,0,0,0,25,32.58a11.63,11.63,0,0,0,4.73-2.25A8.45,8.45,0,0,0,32,27.72a13.29,13.29,0,0,0,1.64-5.35,14.13,14.13,0,0,0-.15-3.73A12.5,12.5,0,0,0,31.08,13a10.62,10.62,0,0,0-6.2-4,13.8,13.8,0,0,0-3.08-.28c-1.47,0-2.94.1-4.41.23s-3.11.27-4.67.41l-5.54.48-.7.08L6.84,14l3.68-.32,1.41,16.09-3.69.32ZM47.49,32a20.45,20.45,0,0,0,3.13-.27,15.63,15.63,0,0,0,4.61-1.48,11.91,11.91,0,0,0,6.46-9.94,13.33,13.33,0,0,0-.31-3.83,12,12,0,0,0-4.83-7.29A12.35,12.35,0,0,0,49.87,7a17.12,17.12,0,0,0-2.95.09,17.75,17.75,0,0,0-3.81.83,12.15,12.15,0,0,0-5,3.14,12,12,0,0,0-3.31,8.85A13.07,13.07,0,0,0,35.55,24a11.91,11.91,0,0,0,6.2,6.83A13.18,13.18,0,0,0,47.49,32ZM29.72,44.49l1.57-.21L29.88,33.66c-.78.11-1.53.19-2.28.31l-.33,7c-.1-.34-.19-.72-.31-1.08l-1.78-5.38c0-.06-.06-.12-.09-.2l-2.23.3,1.41,10.62c.53-.08,1-.11,1.56-.23l-1.1-8h0l2.58,7.85.85-.11c0-.69.09-1.37.13-2s.09-1.37.13-2.06l.12-2c.05-.67.07-1.34.17-2C29,39.2,29.37,41.83,29.72,44.49ZM52.25,44l1.56-.21c-.34-2.21-.51-4.4-1-6.59l1.63,3.17c.54,1,1.08,2.08,1.61,3.13l1.57-.22c-.16-1.2-.31-2.37-.46-3.54s-.31-2.37-.47-3.55-.3-2.34-.48-3.52l-1.56.21c.34,2.32.55,4.63,1,6.94L52.35,33.2l-1.5.2Zm-29.58-.76c-.06-.51-.13-1-.2-1.59-.18-1.43-.37-2.86-.56-4.3a3.7,3.7,0,0,0-.32-1.17,2.23,2.23,0,0,0-1.73-1.32,3.26,3.26,0,0,0-2.12.39,2.17,2.17,0,0,0-1.08,1.5,3.21,3.21,0,0,0,0,1.07l.75,5.65a3.67,3.67,0,0,0,.48,1.43,2,2,0,0,0,1.41,1,3.32,3.32,0,0,0,2-.2,2.17,2.17,0,0,0,1.35-1.65C22.63,43.82,22.64,43.55,22.67,43.26Zm21.54,1.82-.63-4.74,1.71-.23.64,4.75,1.67-.22L46.2,34l-1.68.22.57,4.33-1.71.23c-.21-1.47-.37-2.9-.58-4.33l-1.57.21-.09,0,1.4,10.59,1.3-.17Zm17.7-6.4.05.07c.07.57.16,1.13.22,1.7a1.32,1.32,0,0,1,0,.48.8.8,0,0,1-.77.62.79.79,0,0,1-.84-.42,2,2,0,0,1-.17-.54c-.07-.43-.12-.86-.17-1.29-.16-1.18-.32-2.36-.47-3.54-.06-.43-.12-.85-.16-1.27a.87.87,0,0,1,.85-1.08.77.77,0,0,1,.85.52,6,6,0,0,1,.17.82c0,.25.07.5.11.77l1.61-.21c-.06-.44-.11-.85-.17-1.25a3.17,3.17,0,0,0-.49-1.29A1.93,1.93,0,0,0,61.31,32a3.26,3.26,0,0,0-1.39,0,2.37,2.37,0,0,0-2.07,2.54,9.1,9.1,0,0,0,.1,1.05c.22,1.68.44,3.36.67,5a3.6,3.6,0,0,0,.54,1.55,2,2,0,0,0,1.28.88,2.67,2.67,0,0,0,1.16,0,1.69,1.69,0,0,0,1.15-.87c0-.07.07-.13.12-.22l.43.66.8-.12c-.25-1.8-.47-3.57-.72-5.35l-2.68.35.18,1.36ZM15.62,38a3.59,3.59,0,0,0-.37-1A2.48,2.48,0,0,0,14,35.89a2.68,2.68,0,0,0-3.31,1.22A2.83,2.83,0,0,0,11,40.2a4.93,4.93,0,0,0,1.08,1.06c.48.37,1,.72,1.46,1.09a10.41,10.41,0,0,1,.81.68,1.63,1.63,0,0,1,.5,1,1,1,0,0,1-.57,1.09,1,1,0,0,1-1.32-.26,4.16,4.16,0,0,1-.35-.7c0-.1-.06-.22-.1-.35l-1.55.44a3.45,3.45,0,0,0,.63,1.58,2.46,2.46,0,0,0,1.41.94,3.12,3.12,0,0,0,1.74-.08,2.4,2.4,0,0,0,1.74-2,3.22,3.22,0,0,0-.92-2.81,10.41,10.41,0,0,0-1-.86c-.44-.34-.92-.64-1.36-1a6.07,6.07,0,0,1-.77-.75,1.47,1.47,0,0,1-.36-1,.87.87,0,0,1,.7-.93.84.84,0,0,1,1,.48,2.9,2.9,0,0,1,.16.41c0,.08.05.17.08.27ZM33.87,39.6,36,39.28l-.2-1.48-2.15.3c-.15-1.14-.31-2.23-.43-3.35l2.55-.36c-.06-.52-.12-1-.21-1.51l-4.23.58c.24,1.8.47,3.56.7,5.32s.46,3.52.71,5.3l3.84-.52L36.4,42l-2.17.28Zm3.2-2.87,1.2,9.14L40,45.64l-1.2-9.12,1.8-.23-.2-1.49-1.9.25-1.85.24c-.62.09-1.25.14-1.87.26l.2,1.46Zm13.7,7.49L49.36,33.59l-1.69.23c0,.74,1.34,10.42,1.43,10.62Zm5.68,5.85L55,48.43l.24-.19a1.54,1.54,0,0,0,.62-1.16,1.67,1.67,0,0,0-1.49-1.9,3.22,3.22,0,0,0-.76,0c-.6.06-1.2.14-1.8.22l-.77.1.63,5.15a13.17,13.17,0,0,0,1.44-.18l-.18-1.54.61-.08,1.24,1.43ZM44.92,48.51a2.61,2.61,0,0,0,.77,1.91,2.75,2.75,0,0,0,2.81.69,2.7,2.7,0,0,0,1.18-4.58,2.85,2.85,0,0,0-4.76,2Zm16.44-3.6-.06-.07-.1-.06a3.17,3.17,0,0,0-2-.4,2.73,2.73,0,0,0-2.49,3,2.59,2.59,0,0,0,1.89,2.33,3.39,3.39,0,0,0,3-.58A4.31,4.31,0,0,0,62,48.7l-.29-2.34-2.38.29.13,1.05,1-.11.07.62a1.57,1.57,0,0,1-1.33.27A1.39,1.39,0,0,1,58.19,47a1.34,1.34,0,0,1,1.2-1.35,1.83,1.83,0,0,1,1,.18l.27.14ZM43,50.24l.18,1.44,1.46-.18c0-.27-.06-.5-.09-.73s-.06-.46-.09-.71Z" transform="translate(0 0)"/><path d="M74.89,52.8a2.8,2.8,0,0,1-.13.41,1.66,1.66,0,0,1-1.44,1,1.69,1.69,0,0,1-1.84-1.72A1.67,1.67,0,0,1,73,50.86a1.7,1.7,0,0,1,1.75,1c0,.12.09.25.13.38Zm-1.67,1.06a1.28,1.28,0,0,0,1.26-1.35,1.3,1.3,0,0,0-1.29-1.33,1.33,1.33,0,0,0-1.29,1.36A1.31,1.31,0,0,0,73.22,53.86Z" transform="translate(0 0)"/><path d="M18.24,29.2l-1.4-16,.46-.06c.79-.05,1.57-.13,2.35-.15a9.74,9.74,0,0,1,2.74.32,5.37,5.37,0,0,1,3,2.2A9.08,9.08,0,0,1,26.81,19,13.7,13.7,0,0,1,27,22.87a7.85,7.85,0,0,1-.63,2.51,5.51,5.51,0,0,1-3.48,3.12,13.75,13.75,0,0,1-2.55.53c-.61.07-1.22.11-1.83.17Z" transform="translate(0 0)"/><path d="M41.52,18.89a8.67,8.67,0,0,1,.65-3.52,6.38,6.38,0,0,1,11.29-.88,8.83,8.83,0,0,1,1.3,3.39,12.35,12.35,0,0,1,.16,3.27A7,7,0,0,1,52.53,26a6.26,6.26,0,0,1-4.39,1.49A6.16,6.16,0,0,1,43.33,25a8.38,8.38,0,0,1-1.54-3.52A13.64,13.64,0,0,1,41.52,18.89Z" transform="translate(0 0)"/><path d="M18.29,37.28c0-.78.48-1.17,1.14-1a.76.76,0,0,1,.59.57,6.49,6.49,0,0,1,.16.88c.18,1.32.36,2.65.53,4,.07.51.13,1,.19,1.53a1.22,1.22,0,0,1,0,.33.88.88,0,0,1-1.19.81.74.74,0,0,1-.5-.49,4.06,4.06,0,0,1-.16-.69c-.22-1.71-.45-3.42-.67-5.13C18.35,37.75,18.32,37.47,18.29,37.28Z" transform="translate(0 0)"/><path d="M52.83,47.64l-.15-1.22a7.1,7.1,0,0,1,1.2-.13.6.6,0,0,1,.17,1.16,4.67,4.67,0,0,1-.67.13Z" transform="translate(0 0)"/><path d="M47.81,49.88a1.39,1.39,0,0,1-1.33-1.68,1.27,1.27,0,0,1,1.35-1.11,1.37,1.37,0,0,1,1.28,1.28A1.33,1.33,0,0,1,47.81,49.88Z" transform="translate(0 0)"/><path d="M74,53.38h-.4c0-.09-.07-.19-.1-.29-.09-.34-.14-.38-.55-.34v.62H72.6a7.9,7.9,0,0,1,0-1.64,2.11,2.11,0,0,1,1,0,.42.42,0,0,1,.33.54,1.74,1.74,0,0,1-.26.32C73.9,52.75,73.87,53.07,74,53.38ZM73,52v.45a1.7,1.7,0,0,0,.41-.05.25.25,0,0,0,.14-.2.26.26,0,0,0-.14-.2A.38.38,0,0,0,73,52Z" transform="translate(0 0)"/></g></svg>