<svg id="Layer_1" data-name="Layer 1" xmlns="http://www.w3.org/2000/svg" viewBox="0 0 82.45 20.22"><defs><style>.cls-1{fill:#313131;}</style></defs><title>Glint</title><path class="cls-1" d="M74.63,4.26v0h0Z"/><path class="cls-1" d="M25.94,15.83a3.93,3.93,0,0,0,2.76,4H35v-4Z"/><rect class="cls-1" x="37.92" y="0.36" width="3.89" height="19.51"/><polygon class="cls-1" points="59.09 19.87 49.2 6.84 49.19 19.87 45.3 19.87 45.3 0.36 48.94 0.36 58.84 13.39 58.84 0.36 62.74 0.36 62.74 19.87 59.09 19.87"/><path class="cls-1" d="M74.63,4.3A3.91,3.91,0,0,0,71.87.35h-6.3v4Z"/><path class="cls-1" d="M82.27,1.54V.63h0l-.36.91H81.8L81.44.63h0v.91h-.18V.45h.28l.33.83.32-.83h.27V1.54ZM80.69.59v1h-.18V.59h-.34V.45H81V.59ZM25.94,15.83V.35H22.1v16c0,1.92,1.38,3.48,3.84,3.48H28.7a3.93,3.93,0,0,1-2.76-4M74.63,4.3v0h0V19.79h3.83v-16c0-1.92-1.37-3.47-3.83-3.47H71.87a3.91,3.91,0,0,1,2.76,4M17.7,3,14.89,5.74a6,6,0,0,0-4.7-2.05C6.62,3.69,4,6.31,4,10.12c0,4,2.7,6.47,6.09,6.47,3.19,0,5-1.51,5.54-4.3h-5V9h9a8.2,8.2,0,0,1,.06,1.1c0,5.91-4,10.08-9.53,10.08S0,16.41,0,10.12C0,4.22,4.31,0,10.3,0a9.74,9.74,0,0,1,7.4,3"/></svg>