<svg id="Layer_1" data-name="Layer 1" xmlns="http://www.w3.org/2000/svg" viewBox="0 0 119.41 32.29"><title>greatest</title><path d="M13.66,20.44a1.28,1.28,0,0,0,0-.44c-.15-.4-.25-1-.55-1.11a1.3,1.3,0,0,0-1.17.29,20.39,20.39,0,0,0-2.08,2.45c-.35.49-.15.74.45.68s1.31-.17,2-.26c1.33-.18,1.39-.25,1.39-1.61m11.79-2.56a5.31,5.31,0,0,0,.82-.37,17.6,17.6,0,0,0,2.52-1.79,23.58,23.58,0,0,0,2.38-2.89,1.54,1.54,0,0,0,.2-1.73,1.87,1.87,0,0,0-3.45-.16,5.6,5.6,0,0,0-.51,1c-.51,1.39-1,2.77-1.47,4.17-.18.52-.29,1.07-.49,1.8m1.18,3.57c.66.25,1.31.53,2,.73,1.35.39,2.71.73,4.07,1.09.93.25,1.14.63.84,1.57-.55,1.75-1.27,2.13-3.05,1.7a24.29,24.29,0,0,1-6.57-2.86,5.63,5.63,0,0,0-.31.82c-.42,1.75-.82,3.51-1.24,5.26a1.78,1.78,0,0,1-3,.85,1.82,1.82,0,0,1-.29-1.41c.28-1.6.68-3.18,1-4.77,0-.18.05-.37.1-.68-1.25.37-2.41.66-3.53,1.07-.31.12-.54.56-.73.89a14.37,14.37,0,0,1-4.25,5C6.92,34,1.51,31.87.34,26.22A17.59,17.59,0,0,1,2.49,14a16.61,16.61,0,0,1,7.78-7.53c2.27-1,4.53-1.15,6.64.42a4.38,4.38,0,0,1,.93,5.55,2,2,0,0,1-1.08.66A2.93,2.93,0,0,1,15.59,13c-1.29-.23-1.66-.78-1.45-2.08,0-.24.09-.48.13-.72.15-1-.14-1.31-1-.89a15.43,15.43,0,0,0-3.74,2.17A16.08,16.08,0,0,0,3.73,24.9a5.54,5.54,0,0,0,.36,1.65A3.14,3.14,0,0,0,8.3,28.71a6.47,6.47,0,0,0,3.64-3.07c-.72.07-1.29.15-1.86.17a6.6,6.6,0,0,1-1.54,0,2.7,2.7,0,0,1-2.37-3.12,8.67,8.67,0,0,1,4.88-6.8c1.43-.76,4.34,0,5.43,1.15a3.55,3.55,0,0,1,.78,2.48c0,.46,0,.92,0,1.58,1.35-.45,2.57-.82,3.74-1.29.24-.1.37-.59.47-.93.86-2.82,1.7-5.65,2.55-8.48,0-.19.15-.36.22-.55,1.35-3.56,4.43-3.84,7-2.56a11.28,11.28,0,0,1,2.78,2c1.63,1.6,1.64,3.74.16,5.77A19.56,19.56,0,0,1,28,20.42l-1.31.8c0,.08,0,.16,0,.23" transform="translate(0)"/><path d="M103.76,7.44a4,4,0,0,0-1.11.2A23.14,23.14,0,0,0,99.9,9.31a1.83,1.83,0,0,1-3-.6,11.27,11.27,0,0,1-.5-1.3,1.51,1.51,0,0,0-1.24-1,6.14,6.14,0,0,0-5.37,2.35,3.38,3.38,0,0,0-.2,3.78c1,1.68,2.2,3.26,3.33,4.87.55.78,1.19,1.51,1.71,2.32,1.4,2.17.89,4-1.5,5-2.08.86-4.23,1.57-6.38,2.27a2.56,2.56,0,0,1-2.92-.88,1.53,1.53,0,0,1,.68-2.68c1.34-.4,2.73-.62,4.1-.93A12.34,12.34,0,0,0,90.32,22c1-.38,1.21-1,.52-1.87-1-1.22-2-2.34-2.92-3.62a16.94,16.94,0,0,1-2.11-3.87,6.81,6.81,0,0,1,2.73-8.06,10.49,10.49,0,0,1,7.54-2A4.38,4.38,0,0,1,99,4.08a1.19,1.19,0,0,0,1.37.36q8.17-2.13,16.38-4.2A7.83,7.83,0,0,1,118.42,0c.69,0,1,.3,1,1a2.06,2.06,0,0,1-1.59,2.28c-2.07.62-4.16,1.23-6.26,1.72a5.28,5.28,0,0,0-3.9,3.36,85.6,85.6,0,0,0-5.51,17.74c-.22,1.22-.64,1.59-1.75,1.52s-1.59-.52-1.54-1.57a31.19,31.19,0,0,1,.46-4A89.15,89.15,0,0,1,103.43,8.5c.11-.29.19-.59.33-1.06" transform="translate(0)"/><path d="M55.82,18.82c.23.07.33.13.41.11,1.07-.2,2.14-.38,3.18-.65a.89.89,0,0,0,.45-.71q.11-3.18.1-6.36c0-.61-.1-1.23-.15-1.85l-.3-.06-3.69,9.52m7.74-7.62c0,1.77,0,3.55,0,5.32a.86.86,0,0,0,.57,1A2.15,2.15,0,0,1,65,19.73a1.15,1.15,0,0,1-.75.5c-.69.15-.86.55-.89,1.21-.09,1.92-.22,3.84-.41,5.75-.11,1.08-.65,1.56-1.47,1.48-1.46-.13-2.17-.76-2.1-1.91.09-1.42.21-2.85.32-4.27,0-.58-.13-.84-.76-.66-.85.25-1.71.47-2.57.69A4,4,0,0,0,53.64,25c-.16.36-.31.73-.48,1.08a2.1,2.1,0,0,1-2.75,1.05A1,1,0,0,1,49.64,26a10.73,10.73,0,0,1,.4-1.87A165,165,0,0,1,56.43,7.22c.2-.45.43-.88.65-1.33a1.88,1.88,0,0,1,1.3-1.08,3.84,3.84,0,0,0,1.5-.89,2.11,2.11,0,0,1,3.54,1,5.9,5.9,0,0,1,.13,1.39c0,1.63,0,3.26,0,4.89" transform="translate(0)"/><path d="M38.54,11a2.17,2.17,0,0,1-1.12-2.84,1.93,1.93,0,0,1,.8-.58,16.8,16.8,0,0,1,2-.91,3,3,0,0,1,1.43-.23A11.18,11.18,0,0,0,46.16,6c.86-.19,1.73-.37,2.61-.48a2.34,2.34,0,0,1,2.32,2.79c-.09.25-.54.47-.86.53-2,.38-4.07.74-6.12,1.05a1.85,1.85,0,0,0-1.73,1.52c-.29,1.17-.69,2.31-1,3.47-.22.78-.08.94.67.72,1.34-.41,2.67-.88,4-1.33.26-.08.51-.18.77-.27,1.26-.43,1.72-.25,2.1.81.47,1.33.16,2.16-1,2.56-2.2.78-4.4,1.55-6.62,2.28a2.1,2.1,0,0,0-1.51,1.65c-.21.93-.47,1.86-.61,2.81-.18,1.13.08,1.38,1.19,1.12,1.45-.35,2.9-.77,4.35-1.15a6.16,6.16,0,0,1,.94-.16,1.72,1.72,0,0,1,2.16,1.79,1.19,1.19,0,0,1-.56,1c-2.71.88-5.44,1.68-8.17,2.49a2.93,2.93,0,0,1-.89,0c-2-.08-3.18-1.17-3-3.13a42.55,42.55,0,0,1,1.08-6c.7-3,1.52-6.05,2.3-9.12" transform="translate(0)"/><path d="M81,3.58a15.33,15.33,0,0,1,1.56.12,2,2,0,0,1,1.68,2,1.76,1.76,0,0,1-1.7,1.86,13.07,13.07,0,0,1-1.77,0c-1,0-1.92,0-2.87,0A2.26,2.26,0,0,0,75.8,9.57c-.86,3.13-1.72,6.26-2.66,9.37-.83,2.73-1.75,5.43-2.68,8.13a1.93,1.93,0,0,1-3.17,1,1.15,1.15,0,0,1-.54-1.45c.88-2.72,1.82-5.42,2.59-8.17.81-2.91,1.47-5.86,2.16-8.8.22-.93,0-1.11-.93-1s-1.76.22-2.64.33C66.8,9.07,66.27,8.73,66,7.7a1.51,1.51,0,0,1,1.15-2A37,37,0,0,1,70.94,5C74.35,4.47,77.77,4,81,3.58" transform="translate(0)"/><path d="M82.63,13.2c-.34,1.38-.62,2.78-1,4.15-.89,2.92-1.81,5.83-2.78,8.72a2.14,2.14,0,0,1-3.37.87,1.4,1.4,0,0,1-.25-1.19c.53-2,1.2-3.91,1.72-5.88.67-2.49,1.26-5,1.86-7.52.27-1.14.63-1.41,1.76-1.14a5.67,5.67,0,0,1,.91.29,1.76,1.76,0,0,1,1.18,1.7" transform="translate(0)"/></svg>