<svg id="Layer_1" data-name="Layer 1" xmlns="http://www.w3.org/2000/svg" viewBox="0 0 67 43.37"><title>IEX</title><path d="M47.68.08v20h20V.08Zm16,16h-9v-4h-3v-8h12Z" transform="translate(-0.68 -0.08)"/><path d="M.68,20.08v-4h5v4Zm5,3v20h-5v-20Z" transform="translate(-0.68 -0.08)"/><path d="M14.56,38.21a4.84,4.84,0,0,0,3.51,1.19,4.82,4.82,0,0,0,2.83-.83,4.56,4.56,0,0,0,1.46-1.49h4.78a9.39,9.39,0,0,1-3.52,4.84,10.35,10.35,0,0,1-5.74,1.53,11.22,11.22,0,0,1-4.2-.75,8.67,8.67,0,0,1-3.18-2.12,9.59,9.59,0,0,1-2-3.29,11.79,11.79,0,0,1-.71-4.2A11.39,11.39,0,0,1,8.52,29a9.6,9.6,0,0,1,2.06-3.31,9.83,9.83,0,0,1,3.19-2.2,10.35,10.35,0,0,1,4.11-.8,9.39,9.39,0,0,1,4.4,1,8.81,8.81,0,0,1,3.08,2.62A10.94,10.94,0,0,1,27.1,30a16.91,16.91,0,0,1,.38,5.09H13.22A5,5,0,0,0,14.56,38.21ZM20.69,28a3.78,3.78,0,0,0-3-1.07,4.62,4.62,0,0,0-2.16.44,4.1,4.1,0,0,0-1.38,1.09,4,4,0,0,0-.72,1.37,6,6,0,0,0-.25,1.3h8.83A6.22,6.22,0,0,0,20.69,28Z" transform="translate(-0.68 -0.08)"/><path d="M27.84,23.08H34.1l3.52,5.23,3.49-5.23h6.07L40.6,32.44,48,43.08H41.72l-4.17-6.3-4.18,6.3H27.22l7.19-10.52Z" transform="translate(-0.68 -0.08)"/></svg>