<svg id="Layer_1" data-name="Layer 1" xmlns="http://www.w3.org/2000/svg" viewBox="0 0 185.94 33.17"><title>j&amp;amp;j</title><path d="M6.79,18.73a34.15,34.15,0,0,1,.68,5.88c0,3.86-1.3,6.64-3.16,6.64-1.5,0-1.5-1.62-1.5-2.72,0-3.31,1.69-6.8,4-9.8ZM6.64,18c-.4.51-.8,1-1.17,1.56h0c-1.84-1.79-3.31-5.66-3.31-8.81,0-7.83,5.2-10,5.46-10s.27.09.27.62c0,.8-2.25,4.52-2.25,9.75a43.83,43.83,0,0,0,1,6.9Zm14-4.85c-1-.06-2-.26-2-.92a.42.42,0,0,1,.47-.41c.69,0,1.19.59,1.5,1.33Zm6.86-3.43c0-2.18-.19-8.33,1.48-8.33.65,0,.74.71.74,2A10.36,10.36,0,0,1,27.53,9.7Zm28.41,7.16a8.07,8.07,0,0,1,.27,2c0,.56-.29,1-.62,1s-.47-.35-.47-.95a3.76,3.76,0,0,1,.8-2Zm13.42-4a4.68,4.68,0,0,1-.83.09c-.8,0-1.27-.33-1.27-.86a.59.59,0,0,1,.56-.53c.64,0,1.17.56,1.54,1.29Zm25.29,5h0a3.41,3.41,0,0,0-3.25-2.46c-.5,0-.77.44-.77,1,0,1,1.54,1.6,3,1.6a7.22,7.22,0,0,0,1-.1m11.36.88h0c-2.28,3-4,6.48-4,9.79,0,1.1,0,2.72,1.51,2.72,1.86,0,3.16-2.78,3.16-6.64a33.93,33.93,0,0,0-.68-5.87m13.88-5.62h0c-.32-.75-.81-1.33-1.5-1.33a.41.41,0,0,0-.47.41c0,.66.93.86,2,.92m6.86-3.42h0A10.33,10.33,0,0,0,129,3.31c0-1.24-.09-1.95-.74-1.95-1.66,0-1.49,6.17-1.47,8.34m28.4,7.14h0a3.73,3.73,0,0,0-.81,2c0,.6.11.95.47.95s.62-.41.62-1a7.7,7.7,0,0,0-.28-2m-50.88,3.29c-.73-.56-1.41-1.52-2.45-2.23-.88-.6-3.19.05-5.2.41h0c-.17,1.16-.57,2.3-1,2.3s-.37-.92-.7-2l0,0a13.17,13.17,0,0,1-2.11.28c-1.39,0-4.58-.62-4.58-2.71,0-1.18,1.33-1.66,2.6-1.66,1.45,0,3.75,1,4.31,2.16.15-2-1.3-3.1-1.3-3.43s1.57-.91,1.71-.91c.63,0,1.16,2.83,1.16,4.84,0,.1,0,.19,0,.29h0a15.91,15.91,0,0,1,4.41-.51,10.83,10.83,0,0,1-1.86-6.43C99.25,3.28,106.48,0,107.61,0c.5,0,.62.12.62.41a15.63,15.63,0,0,0-1,6.27,64.27,64.27,0,0,0,.72,8.84c2.88-3,5.94-5.06,7.82-5.06.06,0,.09.11.09.23A5,5,0,0,0,114,14.62c0,2.22,1.36,4.22,3.13,4.22,2,0,3.16-2.12,3.16-3.69a5.57,5.57,0,0,0-.11-1h0c-2.8-.07-3.69-1.12-3.69-2.13a1.6,1.6,0,0,1,1.56-1.47,3.49,3.49,0,0,1,3.12,2.63h.55a5.68,5.68,0,0,0,2.79-1.26h0c0-1.21,0-2.39,0-3.31,0-4.23,1.42-8.07,3.84-8.07,1.24,0,1.89,1,1.89,2.37a12.34,12.34,0,0,1-3.45,8v0c0,3.6-.13,5.57.39,5.57s2.57-6.29,5.05-6.29.47,8,1.57,8c1.33,0,4.37-8.16,6.41-8.16,2.83,0,.88,6.83,1.86,6.83s2.51-6.83,5.14-6.83c3.34,0,.2,8.69,1.92,8.69,1.3,0,4.61-9,5.34-9s-.29.71,2,4a3.62,3.62,0,0,1,.27.41h0c2.35-2.17,5.49-4.06,7.79-4.06.41,0,.65.06.65.36,0,.68-2,1.24-2,4.6,0,2.07,1.42,3.76,3,3.76,2,0,3.1-2,3.1-3.61a4.84,4.84,0,0,0-.24-1.4h0a4.63,4.63,0,0,1-1.34.2,2.26,2.26,0,0,1-2.48-2.15,1.45,1.45,0,0,1,1.5-1.33,3.5,3.5,0,0,1,3.09,2h0c1.85-.8,3.54-2.34,4.68-2.34,2.81,0,1.21,6.09,1.86,6.09s2.87-6.33,5.11-6.33c1.78,0,1.63,2.37,1.63,3.43,0,2.42-.56,5.7.32,5.7.62,0,2.19-2.57,2.39-2.57s.24.06.24.33c0,.5-2.54,4.31-3.93,4.31-2,0-1.83-3.07-1.83-4.05,0-.77.24-4.72-.35-4.72s-1.6,2.57-2.66,4.46-1.63,4.07-2.72,4.07c-1.45,0-1.15-2-1.15-3.95,0-2.6.32-5.11-.5-5.11-.39,0-1.41.9-2.75,1.53h0a5.77,5.77,0,0,1,.22,1.62c0,1.65-.86,5.9-4.85,5.9a5,5,0,0,1-5-5.11c0-2.68,1.51-3.51,2.36-4.46-1.46.25-3.87,1.75-5.73,3.47h0a7.78,7.78,0,0,1,.49,2.7c0,1.92-1.21,3.25-2.46,3.25a1.57,1.57,0,0,1-1.65-1.6A5.79,5.79,0,0,1,154.89,16h0c-.47-1.28-1.14-2.22-1.5-2.22-.74,0-2.89,7-5.61,7-3,0-.92-8.45-1.92-8.45s-3.84,8.45-5.5,8.45c-2.33,0-.23-8.3-1.27-8.3-1.33,0-4.4,8.3-6.46,8.3-2.93,0-.74-8.19-1.95-8.19C130,12.55,129,14.77,128,17c-.86,1.78-1.36,3.64-2.28,3.64s-1-.33-1-3.07c0-.88-.06-2.8-.11-4.78h0a8.19,8.19,0,0,1-3.17,1.28h0a4.68,4.68,0,0,1,0,.66c0,2-.8,6.14-4.87,6.14-3.07,0-4.76-2.33-4.76-5.31A5.33,5.33,0,0,1,113.28,12a25.77,25.77,0,0,0-5.18,4.28v0a31.66,31.66,0,0,1,.33,3.91c0,8.72-3.81,13-5.84,13-1.27,0-2-1.68-2-3.4,0-3,1.51-6.49,3.63-9.64m.41-.6c.37-.52.76-1,1.16-1.54l0,0a43.56,43.56,0,0,1-1-6.89c0-5.23,2.27-9,2.27-9.75,0-.53.09-.62-.29-.62s-5.47,2.21-5.47,10c0,3.16,1.47,7,3.31,8.81m63.9-6.65h0c-.37-.73-.9-1.29-1.54-1.29a.59.59,0,0,0-.56.53c0,.53.5.86,1.27.86a4.79,4.79,0,0,0,.83-.09M14.06,12a5.35,5.35,0,0,0-1.54,3.55c0,3,1.72,5.31,4.79,5.31,4.08,0,4.87-4.16,4.87-6.14q0-.35,0-.66a8.19,8.19,0,0,0,3.17-1.28h0c.05,2,.1,3.9.1,4.78,0,2.74.18,3.07,1,3.07s1.41-1.86,2.27-3.64c1-2.21,2.07-4.43,2.72-4.43,1.21,0-1,8.19,1.95,8.19,2.07,0,5.14-8.3,6.47-8.3,1,0-1.07,8.3,1.24,8.3,1.68,0,4.55-8.45,5.52-8.45s-1.06,8.45,1.92,8.45c2.69,0,4.87-6.95,5.61-6.95.36,0,1,.93,1.5,2.21v0a5.78,5.78,0,0,0-1.52,3.11,1.57,1.57,0,0,0,1.66,1.6c1.24,0,2.45-1.33,2.45-3.25a7.75,7.75,0,0,0-.49-2.7h0c1.85-1.72,4.25-3.22,5.71-3.47-.83.95-2.34,1.78-2.34,4.46a5,5,0,0,0,5,5.11c4,0,4.85-4.25,4.85-5.9a5.79,5.79,0,0,0-.22-1.63h0c1.35-.63,2.38-1.53,2.76-1.53.83,0,.5,2.51.5,5.11,0,1.94-.29,3.95,1.15,3.95,1.1,0,1.63-2.15,2.72-4.07s2.22-4.46,2.66-4.46c.59,0,.35,4,.35,4.72,0,1-.17,4.05,1.84,4.05,1.35,0,3.89-3.81,3.89-4.31,0-.27,0-.33-.2-.33s-1.78,2.57-2.4,2.57c-.88,0-.32-3.28-.32-5.7,0-1.06.15-3.43-1.63-3.43-2.24,0-4.43,6.33-5.1,6.33s.94-6.09-1.87-6.09c-1.14,0-2.83,1.55-4.68,2.35h0a3.52,3.52,0,0,0-3.09-2,1.45,1.45,0,0,0-1.51,1.33A2.26,2.26,0,0,0,68.35,14a5.21,5.21,0,0,0,1.37-.2h0a4.74,4.74,0,0,1,.23,1.4c0,1.57-1.06,3.61-3.1,3.61-1.59,0-3-1.69-3-3.76,0-3.36,2-3.92,2-4.6,0-.3-.24-.36-.68-.36-2.28,0-5.41,1.89-7.76,4.06h0c-.08-.14-.17-.28-.26-.41-2.28-3.25-1.39-4-2-4-.74,0-4.05,9-5.35,9-1.71,0,1.42-8.69-1.92-8.69-2.63,0-4.14,6.83-5.14,6.83s1-6.83-1.86-6.83c-2,0-5.08,8.16-6.41,8.16-1.12,0,1-8-1.57-8s-4.43,6.29-5.05,6.29-.4-2-.38-5.57v0a12.39,12.39,0,0,0,3.45-8C31,1.54,30.34.5,29.09.5c-2.42,0-3.84,3.84-3.84,8.07,0,.92,0,2.09.05,3.3v0a5.73,5.73,0,0,1-2.79,1.25H22a3.51,3.51,0,0,0-3.14-2.63A1.59,1.59,0,0,0,17.28,12c0,1,.89,2.06,3.69,2.13h0a5.65,5.65,0,0,1,.11,1c0,1.57-1.15,3.69-3.19,3.69-1.77,0-3.1-2-3.1-4.22a5,5,0,0,1,1.89-3.93c0-.12,0-.23-.09-.23-1.87,0-4.93,2.06-7.82,5.06h0a64.27,64.27,0,0,1-.72-8.84A16.08,16.08,0,0,1,9,.41C9,.12,8.89,0,8.39,0,7.27,0,0,3.28,0,10.55c0,5.58,3.08,8.07,5.06,9.58h0c-2.13,3.15-3.64,6.62-3.64,9.64,0,1.72.68,3.4,2,3.4,2,0,5.85-4.25,5.85-13a32.15,32.15,0,0,0-.34-3.92h0A26,26,0,0,1,14.06,12"/></svg>