<svg xmlns="http://www.w3.org/2000/svg" viewBox="0 0 63.76 85.57"><defs><style>.cls-1{isolation:isolate;}.cls-2{mix-blend-mode:multiply;}.cls-3{fill:#fff;}</style></defs><title>pepsi</title><g class="cls-1"><g id="Layer_1" data-name="Layer 1"><g class="cls-2"><path class="cls-3" d="M62.16,31.88A30.29,30.29,0,1,1,31.88,1.59,30.28,30.28,0,0,1,62.16,31.88"/><path d="M31.88,1.59A30.29,30.29,0,1,0,62.16,31.88,30.29,30.29,0,0,0,31.88,1.59M63.76,31.88A31.88,31.88,0,1,1,31.88,0,31.89,31.89,0,0,1,63.76,31.88"/><path d="M31.88,59.79a27.91,27.91,0,0,0,24-42.23,19.6,19.6,0,0,1,.58,4.68,19.86,19.86,0,0,1-8.15,16c-8.48,6.24-20.8,6.31-37.77,11.59a27.87,27.87,0,0,0,21.38,10"/><path d="M48.44,9.42A27.91,27.91,0,0,0,8,46.3C27.14,41,42.68,28.22,48.44,9.42"/><path d="M30.42,75.62v.06a3.21,3.21,0,0,1-1,.13,16.84,16.84,0,0,1-2.15-.2,26.16,26.16,0,0,0-3-.25h-.54a10.68,10.68,0,0,0-2.7.53,4.52,4.52,0,0,1,4.64-3.83,4.53,4.53,0,0,1,4.75,3.55m-11.27.66A5.56,5.56,0,0,0,20,79.19a6.73,6.73,0,0,0,5.78,2.92,6.72,6.72,0,0,0,5.72-2.92l.33-.62h-2a5.16,5.16,0,0,1-4.1,2,4.67,4.67,0,0,1-4.58-3.09,9.54,9.54,0,0,1,3.51-.67,16.28,16.28,0,0,1,1.84.17,21.4,21.4,0,0,0,2.89.26,7.53,7.53,0,0,0,2.36-.34c.49-.19.63-.46.54-1a6.27,6.27,0,0,0-6.63-5.43c-3.17,0-6.53,2-6.53,5.83m-12.74.16a4.51,4.51,0,0,1,4.76-4.34C13.9,72.1,16,74,16,76.43c0,2.13-1.64,4.27-4.77,4.27a4.49,4.49,0,0,1-4.79-4.26M6.24,80A6.12,6.12,0,0,0,11,82c3.62,0,6.57-2.61,6.57-5.83s-2.91-5.82-6.62-5.82A6.2,6.2,0,0,0,4.43,77l0,8.59H6.24V80M60.65,68.43a1.26,1.26,0,1,0-1.26,1.26,1.25,1.25,0,0,0,1.26-1.26M58.44,81.57h2l0-11h-2Zm-23-5.13A4.51,4.51,0,0,1,40.2,72.1c2.73,0,4.8,1.86,4.8,4.33,0,2.13-1.64,4.27-4.77,4.27a4.49,4.49,0,0,1-4.79-4.26M40,82c3.63,0,6.59-2.61,6.59-5.83s-2.91-5.82-6.63-5.82A6.2,6.2,0,0,0,33.43,77v8.59h1.82V80A6.11,6.11,0,0,0,40,82m8.48-8.3a2.44,2.44,0,0,0,1,1.92A7.09,7.09,0,0,0,52,76.91a6.48,6.48,0,0,1,2,.94A1.43,1.43,0,0,1,54.53,79c0,1-1.06,1.69-2.76,1.7A6.56,6.56,0,0,1,49,80l-.27-.13-.14.26-.6,1.16.27.14a8,8,0,0,0,3.48.78,6,6,0,0,0,3.4-.9,2.92,2.92,0,0,0,1.34-2.44v0a2.67,2.67,0,0,0-1-2.12,7.2,7.2,0,0,0-2.6-1.28,6.84,6.84,0,0,1-1.93-.85,1.2,1.2,0,0,1-.57-1c0-.75.7-1.52,2.24-1.52a4.69,4.69,0,0,1,2.44.59l.26.16.85-1.39-.28-.15a6.51,6.51,0,0,0-3-.7,5.16,5.16,0,0,0-3.17.93,2.76,2.76,0,0,0-1.18,2.22"/></g></g></g></svg>