<svg xmlns="http://www.w3.org/2000/svg" viewBox="0 0 113.81 25.2"><title>Poppin</title><g id="Layer_2" data-name="Layer 2"><g id="Design"><path d="M85.73.88a3.08,3.08,0,0,0-2.12-.7h-.67A3.06,3.06,0,0,0,80.86.9,3.39,3.39,0,0,0,80,3.53V15.07a3.39,3.39,0,0,0,.83,2.63,3.16,3.16,0,0,0,2.15.72h.67a2.85,2.85,0,0,0,2-.74,3.47,3.47,0,0,0,.79-2.61V3.53A3.46,3.46,0,0,0,85.73.88"/><path d="M104.32,2.13A5,5,0,0,0,102.48.58,5.92,5.92,0,0,0,99.73,0,5.6,5.6,0,0,0,96.4.92a7.72,7.72,0,0,0-2.18,2.36,5,5,0,0,0-.63-1.49,3.59,3.59,0,0,0-.89-1A3.39,3.39,0,0,0,91.63.32,4.79,4.79,0,0,0,90.5.18a4.54,4.54,0,0,0-1.74.31c-.5.2-.76.36-.76.48v14.1a3.43,3.43,0,0,0,.82,2.63,3.13,3.13,0,0,0,2.12.72h.68a3,3,0,0,0,2.06-.72,3.43,3.43,0,0,0,.81-2.63v-8a3.1,3.1,0,0,1,1-1A2.74,2.74,0,0,1,97,5.62a1.93,1.93,0,0,1,1.58.71,3,3,0,0,1,.58,1.93v6.81A3.35,3.35,0,0,0,100,17.7a3.13,3.13,0,0,0,2.14.72h.64a2.9,2.9,0,0,0,2.08-.74,3.46,3.46,0,0,0,.8-2.61v-8a10.72,10.72,0,0,0-.33-2.69,6.27,6.27,0,0,0-1-2.25"/><path d="M110.19,10.93a3.75,3.75,0,0,0-3.62,3.86,3.63,3.63,0,1,0,7.24,0,3.75,3.75,0,0,0-3.62-3.86"/><path d="M35.91,2.58A8,8,0,0,0,33,.67,9.92,9.92,0,0,0,29.3,0a10.1,10.1,0,0,0-3.76.67,8.31,8.31,0,0,0-2.93,1.89,8.27,8.27,0,0,0-1.87,3,10.6,10.6,0,0,0-.66,3.82,11.06,11.06,0,0,0,.64,3.89,8.63,8.63,0,0,0,1.82,3,7.94,7.94,0,0,0,2.88,1.89,11,11,0,0,0,7.57,0,8.06,8.06,0,0,0,2.89-1.89,8.57,8.57,0,0,0,1.86-3,10.74,10.74,0,0,0,.66-3.86,10.89,10.89,0,0,0-.65-3.84,8.37,8.37,0,0,0-1.84-2.95M29.28,13.19a3.74,3.74,0,0,1-3.62-3.85,3.63,3.63,0,1,1,7.24,0,3.74,3.74,0,0,1-3.62,3.85"/><path d="M16.93,2.51A6.79,6.79,0,0,0,14.5.65,7.51,7.51,0,0,0,11.36,0,5.4,5.4,0,0,0,8.18.94,5.13,5.13,0,0,0,6.25,3.43a4.48,4.48,0,0,0-.61-1.59,3.8,3.8,0,0,0-.91-1A3.2,3.2,0,0,0,3.65.32,5,5,0,0,0,2.5.18,4.54,4.54,0,0,0,.76.49C.25.69,0,.85,0,1V21.88A3.3,3.3,0,0,0,.83,24.5a3.12,3.12,0,0,0,2.11.7h.68a3,3,0,0,0,2.06-.72,3.37,3.37,0,0,0,.81-2.6V15.64a5.23,5.23,0,0,0,1.88,2.24,5.14,5.14,0,0,0,3,.87A7,7,0,0,0,14.5,18a7.25,7.25,0,0,0,2.43-1.94,8.89,8.89,0,0,0,1.56-3A12.6,12.6,0,0,0,19,9.34a13.08,13.08,0,0,0-.54-3.9,8.45,8.45,0,0,0-1.56-2.93m-7,10.69A3.74,3.74,0,0,1,6.27,9.34,3.75,3.75,0,0,1,9.88,5.47a3.76,3.76,0,0,1,3.63,3.87A3.75,3.75,0,0,1,9.88,13.2"/><path d="M56.54,2.51A6.79,6.79,0,0,0,54.11.65,7.55,7.55,0,0,0,51,0a5.39,5.39,0,0,0-3.17.94,5.13,5.13,0,0,0-1.93,2.49,4.48,4.48,0,0,0-.61-1.59,3.8,3.8,0,0,0-.91-1A3.2,3.2,0,0,0,43.26.32,5,5,0,0,0,42.11.18a4.5,4.5,0,0,0-1.74.31c-.51.2-.76.36-.76.48V21.88a3.37,3.37,0,0,0,.82,2.62,3.17,3.17,0,0,0,2.12.7h.67a3,3,0,0,0,2.06-.72,3.33,3.33,0,0,0,.82-2.6V15.64A5.28,5.28,0,0,0,48,17.88a5.18,5.18,0,0,0,3,.87A7,7,0,0,0,54.11,18a7.25,7.25,0,0,0,2.43-1.94,8.71,8.71,0,0,0,1.56-3,12.6,12.6,0,0,0,.54-3.78,13.08,13.08,0,0,0-.54-3.9,8.29,8.29,0,0,0-1.56-2.93m-7,10.69a3.74,3.74,0,0,1-3.61-3.86,3.63,3.63,0,1,1,7.24,0,3.75,3.75,0,0,1-3.63,3.86"/><path d="M76.72,2.51A6.7,6.7,0,0,0,74.29.65,7.51,7.51,0,0,0,71.15,0,5.4,5.4,0,0,0,68,.94a5.06,5.06,0,0,0-1.92,2.49,4.48,4.48,0,0,0-.62-1.59,3.63,3.63,0,0,0-.91-1A3,3,0,0,0,63.44.32,5,5,0,0,0,62.29.18a4.45,4.45,0,0,0-1.73.31c-.51.2-.77.36-.77.48V21.88a3.34,3.34,0,0,0,.83,2.62,3.15,3.15,0,0,0,2.12.7h.67a3,3,0,0,0,2.06-.72,3.37,3.37,0,0,0,.81-2.6V15.64a5.23,5.23,0,0,0,1.88,2.24,5.14,5.14,0,0,0,3,.87A7,7,0,0,0,74.29,18a7.15,7.15,0,0,0,2.43-1.94,8.71,8.71,0,0,0,1.56-3,12.6,12.6,0,0,0,.54-3.78,13.08,13.08,0,0,0-.54-3.9,8.29,8.29,0,0,0-1.56-2.93m-7,10.69a3.75,3.75,0,0,1-3.62-3.86,3.63,3.63,0,1,1,7.24,0,3.75,3.75,0,0,1-3.62,3.86"/><path d="M108.38,1.94A1.84,1.84,0,0,1,110.19,0,1.79,1.79,0,0,1,112,1.92a1.83,1.83,0,0,1-1.81,1.94,1.8,1.8,0,0,1-1.81-1.92m3.4,0A1.61,1.61,0,0,0,110.19.2a1.59,1.59,0,0,0-1.59,1.73,1.6,1.6,0,0,0,1.6,1.72,1.58,1.58,0,0,0,1.58-1.72m-1.49.17.65.71s0,.11-.13.11a.22.22,0,0,1-.17-.1l-.62-.7h-.23V2.8a.11.11,0,0,1-.11.12h0c-.06,0-.1,0-.1-.13V1.07c0-.1,0-.16.13-.16h.57c.46,0,.72.21.72.61s-.22.58-.67.58m-.05-.19c.31,0,.47-.15.47-.39s-.16-.39-.48-.39h-.45v.78Z"/></g></g></svg>