<svg id="Layer_1" data-name="Layer 1" xmlns="http://www.w3.org/2000/svg" viewBox="0 0 120.09 54.02"><title>rich</title><path d="M91.26,13a.16.16,0,0,1,.16-.15h2.31A1.75,1.75,0,0,1,95.5,14.6a1.8,1.8,0,0,1-1.2,1.64l1.11,2.05a.16.16,0,0,1-.14.24h-.85a.14.14,0,0,1-.13-.08l-1.07-2.14h-.9v2.06a.17.17,0,0,1-.16.16h-.74a.16.16,0,0,1-.16-.16Zm2.39,2.43a.83.83,0,0,0,.8-.82.81.81,0,0,0-.8-.79H92.33v1.61Z"/><path d="M98.08,13a.15.15,0,0,1,.15-.15H99a.16.16,0,0,1,.16.15v5.36a.16.16,0,0,1-.16.16h-.75a.16.16,0,0,1-.15-.16Z"/><path d="M104.54,12.78a2.75,2.75,0,0,1,2,.75.16.16,0,0,1,0,.23l-.49.51a.14.14,0,0,1-.21,0,1.9,1.9,0,0,0-1.24-.48,1.88,1.88,0,0,0,0,3.76,2,2,0,0,0,1.24-.46.15.15,0,0,1,.21,0l.5.51a.16.16,0,0,1,0,.22,2.77,2.77,0,0,1-2,.79,2.92,2.92,0,1,1,0-5.83Z"/><path d="M109,13a.15.15,0,0,1,.15-.15h.76a.15.15,0,0,1,.15.15v2.15h2.64V13a.16.16,0,0,1,.16-.15h.74a.15.15,0,0,1,.15.15v5.36a.16.16,0,0,1-.15.16h-.74a.16.16,0,0,1-.16-.16V16.14h-2.64v2.23a.16.16,0,0,1-.15.16h-.76a.16.16,0,0,1-.15-.16Z"/><path d="M86.31,25.31H85.07a.15.15,0,0,1-.15-.16v-.66a.15.15,0,0,1,.15-.15h3.54a.15.15,0,0,1,.15.15v.66a.15.15,0,0,1-.15.16H87.37v4.54a.15.15,0,0,1-.15.15h-.76a.15.15,0,0,1-.15-.15Z"/><path d="M90,29.79l2.52-5.45a.14.14,0,0,1,.14-.08h.08a.16.16,0,0,1,.14.08l2.49,5.45a.14.14,0,0,1-.14.21h-.7a.23.23,0,0,1-.24-.16L93.88,29H91.45l-.39.87a.25.25,0,0,1-.24.16h-.7A.14.14,0,0,1,90,29.79Zm3.5-1.72-.81-1.78h0l-.8,1.78Z"/><path d="M97.51,24.49a.15.15,0,0,1,.15-.15h.75a.15.15,0,0,1,.15.15V29h2.06a.16.16,0,0,1,.16.16v.66a.16.16,0,0,1-.16.15h-3a.15.15,0,0,1-.15-.15Z"/><path d="M103,24.49a.15.15,0,0,1,.15-.15h3.3a.15.15,0,0,1,.15.15v.66a.16.16,0,0,1-.15.16h-2.4v1.33h2a.15.15,0,0,1,.15.15v.67a.16.16,0,0,1-.15.16h-2V29h2.4a.16.16,0,0,1,.15.16v.66a.15.15,0,0,1-.15.15h-3.3a.15.15,0,0,1-.15-.15Z"/><path d="M109.2,24.4a.15.15,0,0,1,.15-.14h.2l3.37,3.57h0V24.49a.15.15,0,0,1,.15-.15h.75a.15.15,0,0,1,.15.15v5.45a.15.15,0,0,1-.15.15h-.2l-3.38-3.72h0v3.48a.15.15,0,0,1-.15.15h-.74a.15.15,0,0,1-.15-.15Z"/><path d="M117.64,25.31H116.4a.15.15,0,0,1-.15-.16v-.66a.15.15,0,0,1,.15-.15h3.54a.15.15,0,0,1,.15.15v.66a.15.15,0,0,1-.15.16H118.7v4.54a.15.15,0,0,1-.15.15h-.76a.15.15,0,0,1-.15-.15Z"/><path d="M88.78,35.73a3.07,3.07,0,0,1,2,.76.15.15,0,0,1,0,.22l-.5.53a.15.15,0,0,1-.21,0,1.84,1.84,0,0,0-1.23-.47,1.87,1.87,0,0,0,0,3.73,2.69,2.69,0,0,0,1-.2v-.69h-.65a.15.15,0,0,1-.16-.14v-.64a.16.16,0,0,1,.16-.16H90.7a.16.16,0,0,1,.15.16V40.9a.16.16,0,0,1-.07.13,4.1,4.1,0,0,1-2,.52,2.88,2.88,0,0,1-2.91-2.89A2.91,2.91,0,0,1,88.78,35.73Z"/><path d="M93.46,36a.16.16,0,0,1,.15-.16h2.32a1.76,1.76,0,0,1,1.77,1.74,1.79,1.79,0,0,1-1.2,1.64l1.11,2.06a.15.15,0,0,1-.14.23h-.85a.14.14,0,0,1-.13-.07l-1.08-2.15h-.9v2.07a.15.15,0,0,1-.15.15h-.75a.15.15,0,0,1-.15-.15Zm2.38,2.43a.83.83,0,0,0,.8-.83.8.8,0,0,0-.8-.78H94.52V38.4Z"/><path d="M102.78,35.73a2.92,2.92,0,0,1,0,5.83,2.92,2.92,0,0,1,0-5.83Zm0,4.78a1.86,1.86,0,1,0-1.86-1.85A1.86,1.86,0,0,0,102.78,40.51Z"/><path d="M108.09,36a.16.16,0,0,1,.16-.16H109a.16.16,0,0,1,.16.16v3.31a1.18,1.18,0,1,0,2.35,0V36a.16.16,0,0,1,.16-.16h.77a.16.16,0,0,1,.15.16v3.37a2.26,2.26,0,0,1-4.51,0Z"/><path d="M115.42,36a.16.16,0,0,1,.15-.16h1.9a1.81,1.81,0,1,1,0,3.62h-1v1.9a.16.16,0,0,1-.16.15h-.74a.15.15,0,0,1-.15-.15Zm2,2.47a.84.84,0,0,0,.83-.84.81.81,0,0,0-.83-.79h-.94v1.63Z"/><circle cx="35.35" cy="21.57" r="6.41"/><circle cx="44.35" cy="11.78" r="4.12"/><circle cx="27.7" cy="4.12" r="4.12"/><circle cx="10.14" cy="25.62" r="4.12"/><circle cx="20.05" cy="49.02" r="4.12"/><circle cx="40.3" cy="33.61" r="4.12"/><circle cx="42.32" cy="44.41" r="3.93"/><circle cx="12.28" cy="9.41" r="3.93"/><circle cx="21.73" cy="12.11" r="3.93"/><circle cx="7.11" cy="38.89" r="3.93"/><circle cx="23.98" cy="33.83" r="3.93"/><circle cx="24.18" cy="24.27" r="3.04"/><circle cx="19.23" cy="4.24" r="3.04"/><circle cx="3.73" cy="21.02" r="3.04"/><circle cx="3.5" cy="31.52" r="3.04"/><circle cx="15.33" cy="34.57" r="3.04"/><circle cx="11.8" cy="45.97" r="3.04"/><circle cx="27.35" cy="43.55" r="3.04"/><circle cx="35.15" cy="40.04" r="3.04"/><circle cx="28.55" cy="50.98" r="3.04"/><circle cx="45.11" cy="26.71" r="3.04"/><circle cx="50.74" cy="21.71" r="3.04"/><circle cx="48.41" cy="37.89" r="3.04"/><circle cx="36.1" cy="11.04" r="3.04"/><circle cx="32.89" cy="32.64" r="2.25"/><circle cx="35.93" cy="4.03" r="2.25"/><circle cx="29.69" cy="11.82" r="2.25"/><circle cx="5.96" cy="14.26" r="2.25"/><circle cx="17.49" cy="22.9" r="2.25"/><circle cx="15.09" cy="17.78" r="2.25"/><circle cx="20.82" cy="41.01" r="2.25"/><circle cx="33.8" cy="46.5" r="2.25"/><circle cx="44.88" cy="19.51" r="2.25"/><circle cx="51.55" cy="32.28" r="2.25"/><circle cx="18.61" cy="28.78" r="2.01"/><circle cx="9.99" cy="17.26" r="1.38"/><circle cx="1.38" cy="26.46" r="1.38"/><circle cx="10.07" cy="32.75" r="1.38"/><circle cx="15.32" cy="40.84" r="1.38"/><circle cx="22.97" cy="18.82" r="1.38"/><circle cx="27.37" cy="16.77" r="1.38"/><circle cx="40.68" cy="5.6" r="1.38"/><circle cx="49.65" cy="15.74" r="1.38"/><circle cx="52.81" cy="26.87" r="1.38"/><circle cx="47.06" cy="32.44" r="1.38"/><circle cx="28.96" cy="28.72" r="1.38"/><circle cx="29.19" cy="38.15" r="1.38"/><circle cx="34.25" cy="51.78" r="1.38"/><circle cx="38.35" cy="49.99" r="1.38"/><rect x="68.97" y="1.87" width="1.35" height="50.19"/></svg>