<svg xmlns="http://www.w3.org/2000/svg" viewBox="0 0 103.13 29.37"><title>SumAll</title><g id="Layer_2" data-name="Layer 2"><g id="Design"><g id="nRUA6D"><path d="M0,26.07c.35-.5.7-1,1-1.5l1.11-1.75.42.38a7.81,7.81,0,0,0,6,2.44,5.84,5.84,0,0,0,2-.54,1.61,1.61,0,0,0,.88-1.68,1.43,1.43,0,0,0-1.19-1.26C9,21.82,7.72,21.6,6.5,21.22A20.53,20.53,0,0,1,3.16,19.9a4.9,4.9,0,0,1-.62-8.11,9.16,9.16,0,0,1,6-1.65,10.61,10.61,0,0,1,6.77,2.75l-2,3a6.58,6.58,0,0,0-3.26-1.83A6.57,6.57,0,0,0,6.66,14a3.33,3.33,0,0,0-1.17.6.91.91,0,0,0,.07,1.56,9.08,9.08,0,0,0,2,.82c1.09.31,2.2.53,3.3.79a7.32,7.32,0,0,1,3.32,1.67,5.33,5.33,0,0,1,1.66,4.33c-.09,2.86-2.58,4.73-4.88,5.26-.59.13-1.18.21-1.77.32H7.32c-.22,0-.44-.08-.66-.1A10,10,0,0,1,.32,26.5,1.81,1.81,0,0,0,0,26.28Z"/><path d="M25.56,29.37c-.5-.1-1-.18-1.5-.31a7.51,7.51,0,0,1-4.46-3.2,5.81,5.81,0,0,1-.83-3.09c-.09-1.56-.1-3.12-.11-4.68,0-2.43,0-4.87,0-7.35H23v.6c0,3.12,0,6.25,0,9.37a9.47,9.47,0,0,0,.3,2.38,2.93,2.93,0,0,0,3.17,2.18,3,3,0,0,0,3.18-2.16A6.87,6.87,0,0,0,30,21.19c0-3.27,0-6.55,0-9.83v-.64h4.4v.53c0,3.23,0,6.46,0,9.69a20.36,20.36,0,0,1-.24,2.81,6.78,6.78,0,0,1-5.65,5.41l-1.1.21Z"/><path d="M69.77,29.37A2.39,2.39,0,0,1,68,27.64,2.21,2.21,0,0,1,68.18,26l8-14.58a2.33,2.33,0,0,1,4.15,0C83,16.2,85.65,21,88.28,25.74a2.24,2.24,0,0,1-.32,3,6.05,6.05,0,0,1-1.29.67h-.62a2.93,2.93,0,0,1-1.79-1.64q-2.82-5.31-5.68-10.6l-.32-.56-.28.5q-3,5.52-5.93,11a2,2,0,0,1-1.3,1.08,4.52,4.52,0,0,0-.47.18Z"/><path d="M100.48,29.37a2.57,2.57,0,0,1-1.76-2.75c0-7.93,0-15.87,0-23.8,0-1.67.34-2.2,1.84-2.82h.72a7.43,7.43,0,0,1,1.14.64,2.31,2.31,0,0,1,.69,1.91q0,12,0,24.05c0,1.66-.33,2.15-1.83,2.77Z"/><path d="M93.06,29.37a2.38,2.38,0,0,1-1.82-2.74c0-6.42,0-12.83,0-19.25a2.2,2.2,0,0,1,2.94-2.23,2.06,2.06,0,0,1,1.46,2.12V26.68a2.33,2.33,0,0,1-1.85,2.69Z"/><path d="M64.93,29.11H60.61c0-.19,0-.39,0-.59,0-3.74,0-7.48,0-11.23A5.29,5.29,0,0,0,60.43,16a3.18,3.18,0,0,0-4.53-1.8A3.93,3.93,0,0,0,53.53,18c0,3.47,0,6.94,0,10.41v.69H49.15v-.6q0-5.61,0-11.23A4.87,4.87,0,0,0,49,16c-.69-2.5-3.72-2.54-5.15-1.42a4.25,4.25,0,0,0-1.59,3.53c0,3.47,0,6.94,0,10.41v.64H37.87V10.73h4.35v1.45a6.55,6.55,0,0,1,5.42-2,6.09,6.09,0,0,1,5,2.74,7.51,7.51,0,0,1,4.07-2.52,8.47,8.47,0,0,1,5.1.33,4.48,4.48,0,0,1,2.53,2.77A9,9,0,0,1,65,17.05V28.59C65,28.76,64.94,28.92,64.93,29.11Z"/></g></g></g></svg>