<svg id="Layer_1" data-name="Layer 1" xmlns="http://www.w3.org/2000/svg" viewBox="0 0 182.8 33.34"><title>warby</title><path d="M73.33,28.26a1.86,1.86,0,0,0,.19-1,2,2,0,0,0-2.13-2,2.64,2.64,0,0,0-2.6,2.9,2.51,2.51,0,0,0,2.56,2.82,2,2,0,0,0,2.09-1.36l-.18-.35-.05-.08-.06.08a1.87,1.87,0,0,1-1.64.86c-1.06,0-1.71-.63-1.71-1.92v0Zm-2-2.16a1.14,1.14,0,0,1,1.21,1.3v.23H69.84c.13-.91.57-1.52,1.51-1.53m8.47-.1a1.73,1.73,0,0,0,.91.22l-1.32,3.33L78,26.22a2.5,2.5,0,0,0,.83-.16l0-.48v-.06H76.26V26a1.53,1.53,0,0,0,.76.21l1.88,4.57-.43.91a2.05,2.05,0,0,1-.82,1.08.64.64,0,0,0,.09-.33.62.62,0,0,0-.65-.66.67.67,0,0,0-.65.7c0,.51.41.86,1,.86.84,0,1.33-.63,1.75-1.65l2.34-5.52a1.37,1.37,0,0,0,.67-.11v-.54H79.82Zm9.24,2.26a1.86,1.86,0,0,0,.19-1,2,2,0,0,0-2.14-2,2.64,2.64,0,0,0-2.59,2.9,2.5,2.5,0,0,0,2.56,2.82,2,2,0,0,0,2.08-1.36L89,29.35l0-.08-.05.08a1.89,1.89,0,0,1-1.64.86c-1.07,0-1.71-.63-1.72-1.92v0Zm-2-2.16a1.13,1.13,0,0,1,1.2,1.3v.23H85.56c.14-.91.58-1.52,1.52-1.53M98.37,26a1.87,1.87,0,0,0,.95.22l-1.13,3.24-1.49-4h-.51l-1.5,4.08-1.23-3.29a2.57,2.57,0,0,0,.84-.16l0-.48v-.06H91.72V26a1.57,1.57,0,0,0,.71.21l1.86,4.85h.5l1.48-3.89,1.48,3.89h.55l1.86-4.89a1.35,1.35,0,0,0,.62-.11l0-.48v-.06H98.37Zm9,2.26a1.86,1.86,0,0,0,.19-1,2,2,0,0,0-2.14-2,2.64,2.64,0,0,0-2.59,2.9,2.51,2.51,0,0,0,2.56,2.82,2,2,0,0,0,2.09-1.36l-.18-.35,0-.08-.06.08a1.87,1.87,0,0,1-1.64.86c-1.06,0-1.7-.63-1.71-1.92v0Zm-2-2.16a1.14,1.14,0,0,1,1.21,1.3v.23h-2.72c.13-.91.57-1.52,1.51-1.53m10.06,4.2c-.36,0-.48-.12-.49-.62s0-2.45,0-2.45v-.11c0-1.23-.75-1.86-2-1.86a1.91,1.91,0,0,0-2.06,1.54.57.57,0,0,0,.57.61.54.54,0,0,0,.61-.56.56.56,0,0,0-.35-.53,1.89,1.89,0,0,1,1-.26c.91,0,1.28.39,1.29,1.21l0,.74a3.68,3.68,0,0,0-.93-.12c-1.53,0-2.56.51-2.56,1.67,0,1,.76,1.49,1.75,1.5a2.33,2.33,0,0,0,1.79-.73,1.06,1.06,0,0,0,1.12.73h0a1.16,1.16,0,0,0,1-.5l.05-.45V30l-.1.07a1.18,1.18,0,0,1-.69.24M114,29.72a2.33,2.33,0,0,1-1.5.49c-.63,0-1-.27-1-.74,0-.75.65-.91,1.72-.92a6.31,6.31,0,0,1,.76.07Zm.06,0h0m8.18-4.41a1.76,1.76,0,0,0-1.55,1v-.74a1.92,1.92,0,0,0-.9-.15,3.94,3.94,0,0,0-1.25.19v.51a1.91,1.91,0,0,0,.78.14,2.41,2.41,0,0,0,.4,0v4a2.54,2.54,0,0,0-1.1.24V31H122v-.48a3,3,0,0,0-1.32-.24V27.31a1.53,1.53,0,0,1,1.08-1.11.61.61,0,0,0,.64.57.65.65,0,0,0,.66-.68.77.77,0,0,0-.83-.75"/><path d="M18.11.32h-.65c-.17,0-.67.18-.67.4L13.33,9.8,10,.65C9.91.36,9.44.26,9.41.29H9.36c-.18-.06-.54.23-.54.37L5.56,9.8C4.75,7.75,3,3.33,2,.8A.68.68,0,0,0,1.38.32H.54A.66.66,0,0,0,.22.39.49.49,0,0,0,0,.81a1.18,1.18,0,0,0,.07.32L5,13.5a.71.71,0,0,0,.55.35h0a.58.58,0,0,0,.58-.39c.93-2.56,2.5-6.8,3.26-8.81.73,2,2.31,6.35,3.23,8.82.06.29.55.39.6.38s.52-.09.56-.37C15.44,9.36,17.4,4.4,18.68,1.13a1.41,1.41,0,0,0,.06-.31c0-.43-.58-.5-.63-.5m10,0A.59.59,0,0,0,27.55,0,.71.71,0,0,0,27,.36c-1.19,2.31-5.56,11-6.26,12.36a.49.49,0,0,0-.12.36c.07.49.59.49.68.49H22a.8.8,0,0,0,.71-.42l1.25-2.57h7.24l1.29,2.62c0,.12.37.38.57.38h.87c.14,0,.6-.16.6-.5a.59.59,0,0,0-.09-.33c-.76-1.56-5.09-10-6.3-12.38m-3.33,8.5c.57-1.16,1.89-3.74,2.78-5.57a0,0,0,0,0,0,0s0,0,0,.05c.91,1.8,2.17,4.39,2.76,5.55Zm21.55-.55A4,4,0,0,0,48.87,4.6,4.44,4.44,0,0,0,44.14.32h-5a.46.46,0,0,0-.4.16.58.58,0,0,0-.16.43V13a.49.49,0,0,0,.1.38.57.57,0,0,0,.48.21H40a.58.58,0,0,0,.43-.18.6.6,0,0,0,.13-.41V8.73h3.72l3.38,4.54a.82.82,0,0,0,.56.3H49c.09,0,.65-.12.65-.52a.94.94,0,0,0-.18-.48c-1-1.35-2.52-3.38-3.2-4.26M44,7H40.55V2.09h3.54A2.65,2.65,0,0,1,47,4.63C46.9,6,46,7,44,7m19.84-.27A3.18,3.18,0,0,0,65.05,4c0-2.36-2.18-3.65-4.75-3.65h-5a.72.72,0,0,0-.46.14.58.58,0,0,0-.18.48V13a.76.76,0,0,0,.59.59h5.85c2.83,0,4.62-1.25,4.63-3.75a3.39,3.39,0,0,0-1.92-3.11M56.68,2.09h3.75c1.78,0,2.63.81,2.66,2C63,5.51,62.57,6,60.74,6H56.68ZM61,11.82H56.68V7.76H61c1.87,0,2.83.86,2.84,2.06,0,1.37-.75,1.92-2.8,2M80.09.32h-.78a.76.76,0,0,0-.6.4c-.67,1-3,4.52-3.86,5.91-.9-1.41-3.19-5-3.86-6a.74.74,0,0,0-.65-.35h-.68a.63.63,0,0,0-.7.5.76.76,0,0,0,.09.31c1,1.5,4.3,6.67,4.82,7.44V13a.51.51,0,0,0,.15.43.5.5,0,0,0,.41.18h.76a.66.66,0,0,0,.49-.18.6.6,0,0,0,.13-.48V8.57c.52-.75,3.73-5.72,4.78-7.38A1,1,0,0,0,80.7.82a.58.58,0,0,0-.61-.5m20.46,0h-5a.47.47,0,0,0-.4.16A.6.6,0,0,0,95,.91V13c0,.1,0,.2.15.41a.52.52,0,0,0,.41.18h.86a.5.5,0,0,0,.45-.24A.54.54,0,0,0,97,13V8.77h3.21c2.95,0,5.09-1.62,5.1-4.22S103,.32,100.55.32m0,6.69H97V2.09h3.52c1.59,0,2.83.91,2.83,2.46S102.09,7,100.52,7m14-6.65A.65.65,0,0,0,114,0a.64.64,0,0,0-.52.36c-1.23,2.31-5.59,11-6.29,12.36a.46.46,0,0,0-.1.36c0,.49.56.49.66.49h.65a.78.78,0,0,0,.71-.42l1.3-2.57h7.21l1.31,2.62a.75.75,0,0,0,.56.38h.85c.14,0,.61-.16.61-.5a1.37,1.37,0,0,0-.09-.33c-.77-1.56-5.12-10-6.3-12.38m-3.35,8.5c.6-1.16,1.9-3.74,2.78-5.57h0s0,0,0,0l2.74,5.55Zm21.44-.56a3.94,3.94,0,0,0,2.55-3.7A4.42,4.42,0,0,0,130.44.32h-5a.78.78,0,0,0-.54.6V13a.56.56,0,0,0,.56.59h.82a.57.57,0,0,0,.44-.19.46.46,0,0,0,.13-.4V8.71h3.72L134,13.27a.78.78,0,0,0,.6.3h.78c.08,0,.65-.15.65-.52a.9.9,0,0,0-.17-.48c-1-1.36-2.52-3.38-3.21-4.27M130.31,7h-3.43V2.09h3.51c1.65,0,2.87,1,2.89,2.54,0,1.37-.91,2.31-3,2.35M147,5.87l4.29-4.66a.52.52,0,0,0,.14-.32.6.6,0,0,0-.63-.57H150a1,1,0,0,0-.61.21L143,7.64V.94a.59.59,0,0,0-.13-.43.59.59,0,0,0-.48-.19h-.74a.7.7,0,0,0-.46.15.62.62,0,0,0-.15.44V13a.48.48,0,0,0,.16.41.67.67,0,0,0,.48.17h.66a.81.81,0,0,0,.49-.14A.52.52,0,0,0,143,13V10.28l2.68-2.93,4.56,5.85a1.12,1.12,0,0,0,.72.37h.86c.2,0,.61-.19.61-.52a.55.55,0,0,0-.13-.37Zm19.35,6.61a.67.67,0,0,0-.12-.5.6.6,0,0,0-.45-.18s-.05,0-.08,0h-7V7.73h6.85c.42,0,.59-.58.59-.73V6.62c0-.1-.19-.67-.59-.67h-6.83V2.09h6.91a.58.58,0,0,0,.51-.22.79.79,0,0,0,.12-.45V1a1,1,0,0,0-.12-.47.69.69,0,0,0-.47-.16h-8.44a.43.43,0,0,0-.47.5V12.9c0,.12-.05.23.09.42a.55.55,0,0,0,.48.25h8.44a.56.56,0,0,0,.41-.16.49.49,0,0,0,.16-.48Zm16.28.09c-1-1.36-2.55-3.38-3.21-4.27A3.94,3.94,0,0,0,182,4.6,4.43,4.43,0,0,0,177.24.32h-5a.76.76,0,0,0-.54.6V13a.59.59,0,0,0,.1.38.56.56,0,0,0,.47.21h.83a.54.54,0,0,0,.43-.19.51.51,0,0,0,.14-.4V8.71h3.7l3.36,4.56a.9.9,0,0,0,.62.3h.8c.06,0,.64-.15.64-.52a.82.82,0,0,0-.17-.48M177.09,7h-3.41V2.09h3.53c1.64,0,2.84,1,2.84,2.54,0,1.37-.9,2.31-3,2.35"/></svg>