<svg xmlns="http://www.w3.org/2000/svg" viewBox="0 0 141.74 29.01"><title>Wework</title><g id="Layer_2" data-name="Layer 2"><g id="Design"><path d="M1.06,14a2.43,2.43,0,0,1,1.88,1.51c2.26,4.14,4.52,8.71,6.72,13.2a1.55,1.55,0,0,0,1.07.29,1.57,1.57,0,0,0,1.06-.29c1.05-2,3.81-7.28,5-9.35,1.38,2.55,3.77,7.2,4.74,9.35A1.52,1.52,0,0,0,22.6,29a1.48,1.48,0,0,0,1-.29c1.94-4.21,4.05-8.59,6.17-12.66.74-1.46,1.06-1.86,2.58-2.14l.64-.11c.37-.37.28-1.24-.13-1.4-1,.08-2.21.12-3.55.12-1.15,0-2.25,0-3.77-.12-.46.16-.46,1.11-.18,1.4l.78.15c.79.16,1.15.36,1.15.56a4.89,4.89,0,0,1-.43,1.54c-.72,1.85-1.45,3.8-2.57,6.1-1-1.91-2.29-4.49-3.12-6.41a3.32,3.32,0,0,1-.37-1.23c0-.2.64-.4,1.7-.6l.69-.11c.33-.16.37-1.35-.14-1.4-2.94.08-5.24.12-8.14.12H5.66c-1.93,0-3.4,0-5.29-.12-.47.2-.47,1.07-.15,1.4ZM11.5,14a12.43,12.43,0,0,1,2.22.15,2.55,2.55,0,0,1,1.7,2.07,4.15,4.15,0,0,1-.14,1.2,39.18,39.18,0,0,1-2.44,4.73c-.78-1.27-2.63-4.85-3.26-6.25a3.78,3.78,0,0,1-.42-1.31c0-.44.87-.59,2.34-.59"/><path d="M39.49,29a9.05,9.05,0,0,0,8.06-4.54,1,1,0,0,0-1.2-.93,4.77,4.77,0,0,1-4.29,2.07c-4.27,0-6.49-2.89-6.49-5.88,0-.63.1-.71,1.16-.71h8.83c1.43,0,1.66-.56,1.66-1.31,0-3.07-2.58-5.74-7.37-5.74-5.74,0-9.93,3.91-9.93,8.92,0,4.34,3.36,8.12,9.57,8.12m0-15.2A2.14,2.14,0,0,1,42,16c0,.4-.1.8-.32.92a4.21,4.21,0,0,1-1.9.35h-1.7c-1.48,0-2.11,0-2.11-.59,0-1.28,1.65-2.86,3.59-2.86"/><path d="M48.6,14a2.43,2.43,0,0,1,1.88,1.51c2.25,4.14,4.52,8.71,6.72,13.2a2.08,2.08,0,0,0,2.12,0c1.06-2,3.82-7.28,5-9.35,1.38,2.55,3.76,7.2,4.73,9.35a1.54,1.54,0,0,0,1.06.29,1.52,1.52,0,0,0,1.06-.29c1.93-4.21,4-8.59,6.17-12.66.74-1.46,1-1.86,2.57-2.14l.65-.11c.37-.37.27-1.24-.14-1.4-1,.08-2.21.12-3.55.12-1.15,0-2.25,0-3.77-.12-.46.16-.46,1.11-.18,1.4l.78.15c.79.16,1.15.36,1.15.56a5.29,5.29,0,0,1-.41,1.54c-.74,1.85-1.48,3.8-2.58,6.1-1-1.91-2.3-4.49-3.13-6.41a3.32,3.32,0,0,1-.37-1.23c0-.2.64-.4,1.71-.6l.68-.11c.33-.16.37-1.35-.13-1.4-3,.08-5.25.12-8.15.12h-9.3c-1.92,0-3.4,0-5.28-.12-.46.2-.46,1.07-.14,1.4ZM59,14a12.25,12.25,0,0,1,2.21.15A2.55,2.55,0,0,1,63,16.23a4.45,4.45,0,0,1-.13,1.2,42.31,42.31,0,0,1-2.44,4.73c-.79-1.27-2.62-4.85-3.27-6.25a3.92,3.92,0,0,1-.41-1.31c0-.44.87-.59,2.34-.59"/><path d="M88,29c5.65,0,10.58-2.75,10.58-8.56,0-5.61-4.89-8.48-10.32-8.48s-10.63,3.14-10.58,8.84C77.73,26.3,82.51,29,88,29m0-15.2c2.61,0,3.9,3.33,4,7.2,0,3.58-.84,6.17-3.46,6.17s-4.19-3.07-4.19-7.25c0-4.33,1.67-6.12,3.7-6.12"/><path d="M106.42,15.39c.28,0,.69,0,1.74.8a2.76,2.76,0,0,0,1.8.72c1.47,0,3-.76,3-2.59A2.41,2.41,0,0,0,110.37,12c-1.93,0-3.26,1.31-4.51,2-.37-.08-.46-.2-.46-.48s.09-.91.18-1.71a1,1,0,0,0-.82-.36A34.09,34.09,0,0,1,98,13.81.86.86,0,0,0,98,15l.66.36c.87.48.87.95.87,2.55v6c0,2.78-.19,3.14-1.71,3.27l-.87.07a1,1,0,0,0,0,1.4c1.53-.09,3.55-.12,5.44-.12,2.15,0,4,0,6.21.12a1,1,0,0,0,0-1.4l-1.47-.11c-1.52-.13-1.7-.45-1.7-3.23V17.78c0-1.51.23-2.39.88-2.39"/><path d="M124.43,27.05l-.6.13a.92.92,0,0,0,.18,1.38c1.29-.08,2.94-.12,5.67-.12s4.36,0,5.79.12c.46-.15.55-1.11.18-1.38l-.68-.13a5.87,5.87,0,0,1-2.72-.91c-1.15-.91-5.2-6.33-6-7.6a1.4,1.4,0,0,1-.34-.68.81.81,0,0,1,.28-.52A27.5,27.5,0,0,1,129.26,15a8.15,8.15,0,0,1,3.09-1.38l1.46-.29a1,1,0,0,0-.18-1.39,77.93,77.93,0,0,1-8.7.56h-1.1c-.46.17-.51,1-.1,1.39l1.16.17c.41,0,.87.19.87.39s-.22.67-1.11,1.58l-1.92,2a3.66,3.66,0,0,1-2.67,1.11c-.51,0-.65-.12-.65-.56V6.09c0-2.51,0-4.19.14-5.81a1,1,0,0,0-.78-.28,57.25,57.25,0,0,1-7,2.22.84.84,0,0,0,0,1.19l.78.41c.92.48.92.91.92,2.51v17.5c0,2.78-.19,3.1-1.85,3.27l-.87.08a1,1,0,0,0,0,1.38c1.62-.08,3.5-.12,5.62-.12s4,0,5.53.12a1,1,0,0,0,0-1.38l-.73-.08c-1.62-.17-1.8-.49-1.8-3.27v-2.3c0-.77.23-1,.55-1a1.36,1.36,0,0,1,1.16.59l3.26,4.3a4.62,4.62,0,0,1,.78,1.28c0,.15-.27.23-.73.31"/><path d="M139.34,29a2.39,2.39,0,1,1,2.4-2.39,2.39,2.39,0,0,1-2.4,2.39m0-4.32a1.93,1.93,0,1,0,1.93,1.93,1.93,1.93,0,0,0-1.93-1.93"/><path d="M139.76,27.76l-.48-.86h-.38v.86h-.52V25.32h1.14a.76.76,0,0,1,.82.79.69.69,0,0,1-.53.72l.55.93Zm.05-1.65a.34.34,0,0,0-.37-.33h-.54v.66h.54a.33.33,0,0,0,.37-.33"/></g></g></svg>